<?xml version="1.0" encoding="UTF-8" standalone="no"?><!DOCTYPE svg PUBLIC "-//W3C//DTD SVG 1.1//EN" "http://www.w3.org/Graphics/SVG/1.1/DTD/svg11.dtd"><svg width="100%" height="100%" viewBox="0 0 1041 68" version="1.1" xmlns="http://www.w3.org/2000/svg" xmlns:xlink="http://www.w3.org/1999/xlink" xml:space="preserve" xmlns:serif="http://www.serif.com/" style="fill-rule:evenodd;clip-rule:evenodd;stroke-linecap:round;stroke-linejoin:round;stroke-miterlimit:1.5;"><g><path d="M122.896,53.918l4.824,-12.199l13.929,0l-6.61,-18.505l8.267,-20.906l23.679,62.87l-17.462,0l-4.047,-11.26l-22.58,0" style="fill:#3d3d3d;fill-rule:nonzero;"/><path d="M107.999,65.179l25.349,-62.87l-16.805,0l-17.341,40.627l-12.33,-40.627l-12.918,0l-13.239,40.627l-9.338,-18.513l-8.449,26.032l8.579,14.724l16.538,0l11.964,-36.435l11.407,36.435l16.583,0" style="fill:#5a0fc8;fill-rule:nonzero;"/><path d="M15.952,43.596l10.351,0c3.136,0 5.928,-0.35 8.377,-1.05l2.677,-8.247l7.481,-23.05c-0.569,-0.904 -1.22,-1.758 -1.952,-2.563c-3.842,-4.252 -9.462,-6.378 -16.862,-6.378l-26.024,0l0,62.87l15.952,0l0,-21.582Zm13.702,-26.824c1.5,1.51 2.25,3.531 2.25,6.063c0,2.551 -0.66,4.574 -1.979,6.07c-1.447,1.662 -4.11,2.492 -7.991,2.492l-5.982,0l0,-16.89l6.026,0c3.617,0 6.175,0.754 7.676,2.265" style="fill:#3d3d3d;fill-rule:nonzero;"/></g><g><path d="M372.085,12.328l0,10.427c0,2.207 -0.076,4.16 -0.202,5.911c2.131,-2.893 5.251,-4.364 9.336,-4.364c3.957,0 7.052,1.37 9.234,4.085c2.207,2.714 3.299,6.52 3.299,11.416c0,4.922 -1.117,8.753 -3.324,11.518c-2.207,2.74 -5.302,4.11 -9.209,4.11c-1.954,0 -3.755,-0.355 -5.379,-1.066l-0.025,0c-1.573,-0.735 -2.918,-1.852 -4.009,-3.298l-0.076,0l-0.964,3.831l-3.552,0l0,-42.57l4.871,0Zm-86.206,2.536l6.291,24.635c0.761,3.019 1.32,5.759 1.726,8.27c0.482,-2.942 1.116,-5.835 1.978,-8.651l7.129,-24.254l5.176,0l7.509,24.457c0.761,2.537 1.421,5.379 1.979,8.499c0.381,-2.385 0.939,-5.125 1.776,-8.372l6.292,-24.584l5.276,0l-10.68,39.882l-0.026,0.152l-4.845,0l-8.043,-26.689c-0.38,-1.167 -0.811,-2.663 -1.268,-4.44c-0.228,-0.913 -0.431,-1.623 -0.533,-2.156l-0.025,-0.101c-0.406,2.131 -0.939,4.389 -1.7,6.875l-7.788,26.511l-4.846,0l-10.655,-40.034l5.277,0Zm117.107,0l9.716,15.527l9.819,-15.527l5.378,0l-12.406,18.952l13.167,20.778l0.177,0.304l-5.682,0l-10.554,-17.277l-10.731,17.277l-5.328,0l13.294,-20.905l-12.406,-19.129l5.556,0Zm42.088,0c4.897,0 8.525,0.939 10.884,2.842c2.385,1.903 3.577,4.77 3.577,8.55c0,5.226 -2.689,8.829 -7.89,10.731l10.833,17.911l-5.911,0l-9.59,-16.49l-7.966,0l0,16.49l-4.998,0l0,-40.034l11.061,0Zm-6.063,19.205l6.114,0c3.222,0 5.556,-0.634 7.027,-1.877c1.472,-1.268 2.208,-3.146 2.208,-5.683c0,-2.587 -0.736,-4.389 -2.233,-5.505c-1.497,-1.116 -3.932,-1.7 -7.332,-1.7l-5.784,0l0,14.765Zm-82.376,-6.063c2.207,2.486 3.298,5.759 3.298,9.793l0,3.044l-20.423,0c0.102,3.349 0.964,5.886 2.538,7.611c1.649,1.776 3.957,2.664 6.951,2.664c3.171,0 6.291,-0.659 9.412,-2.004l0.254,-0.102l0,4.415l-0.102,0.05c-1.598,0.711 -3.12,1.193 -4.566,1.497c-1.446,0.305 -3.146,0.457 -5.176,0.457c-4.414,0 -7.941,-1.37 -10.528,-4.084c-2.588,-2.715 -3.856,-6.47 -3.856,-11.265c0,-4.82 1.192,-8.676 3.577,-11.543c2.384,-2.842 5.632,-4.288 9.64,-4.288c3.781,0 6.774,1.243 8.981,3.755Zm-14.613,2.664c-1.319,1.472 -2.131,3.526 -2.41,6.14l15.12,0c-0.05,-2.715 -0.659,-4.77 -1.852,-6.191c-1.217,-1.471 -2.968,-2.207 -5.276,-2.207c-2.335,0 -4.186,0.736 -5.582,2.258Zm32.068,0.38c-1.32,1.675 -2.005,4.618 -2.005,8.753c0,4.161 0.711,7.104 2.055,8.854c1.345,1.751 3.501,2.613 6.546,2.613c2.714,0 4.693,-0.964 6.012,-2.917c1.32,-1.979 2.005,-4.846 2.005,-8.601c0,-3.831 -0.685,-6.672 -2.005,-8.524c-1.319,-1.852 -3.348,-2.765 -6.139,-2.765c-3.019,0 -5.175,0.862 -6.469,2.587" style="fill:#3d3d3d;fill-rule:nonzero;"/><path d="M372.085,12.328l0,10.427c0,2.207 -0.076,4.16 -0.202,5.911c2.131,-2.893 5.251,-4.364 9.336,-4.364c3.957,0 7.052,1.37 9.234,4.085c2.207,2.714 3.299,6.52 3.299,11.416c0,4.922 -1.117,8.753 -3.324,11.518c-2.207,2.74 -5.302,4.11 -9.209,4.11c-1.954,0 -3.755,-0.355 -5.379,-1.066l-0.025,0c-1.573,-0.735 -2.918,-1.852 -4.009,-3.298l-0.076,0l-0.964,3.831l-3.552,0l0,-42.57l4.871,0Zm-86.206,2.536l6.291,24.635c0.761,3.019 1.32,5.759 1.726,8.27c0.482,-2.942 1.116,-5.835 1.978,-8.651l7.129,-24.254l5.176,0l7.509,24.457c0.761,2.537 1.421,5.379 1.979,8.499c0.381,-2.385 0.939,-5.125 1.776,-8.372l6.292,-24.584l5.276,0l-10.68,39.882l-0.026,0.152l-4.845,0l-8.043,-26.689c-0.38,-1.167 -0.811,-2.663 -1.268,-4.44c-0.228,-0.913 -0.431,-1.623 -0.533,-2.156l-0.025,-0.101c-0.406,2.131 -0.939,4.389 -1.7,6.875l-7.788,26.511l-4.846,0l-10.655,-40.034l5.277,0Zm117.107,0l9.716,15.527l9.819,-15.527l5.378,0l-12.406,18.952l13.167,20.778l0.177,0.304l-5.682,0l-10.554,-17.277l-10.731,17.277l-5.328,0l13.294,-20.905l-12.406,-19.129l5.556,0Zm42.088,0c4.897,0 8.525,0.939 10.884,2.842c2.385,1.903 3.577,4.77 3.577,8.55c0,5.226 -2.689,8.829 -7.89,10.731l10.833,17.911l-5.911,0l-9.59,-16.49l-7.966,0l0,16.49l-4.998,0l0,-40.034l11.061,0Zm-6.063,19.205l6.114,0c3.222,0 5.556,-0.634 7.027,-1.877c1.472,-1.268 2.208,-3.146 2.208,-5.683c0,-2.587 -0.736,-4.389 -2.233,-5.505c-1.497,-1.116 -3.932,-1.7 -7.332,-1.7l-5.784,0l0,14.765Zm-82.376,-6.063c2.207,2.486 3.298,5.759 3.298,9.793l0,3.044l-20.423,0c0.102,3.349 0.964,5.886 2.538,7.611c1.649,1.776 3.957,2.664 6.951,2.664c3.171,0 6.291,-0.659 9.412,-2.004l0.254,-0.102l0,4.415l-0.102,0.05c-1.598,0.711 -3.12,1.193 -4.566,1.497c-1.446,0.305 -3.146,0.457 -5.176,0.457c-4.414,0 -7.941,-1.37 -10.528,-4.084c-2.588,-2.715 -3.856,-6.47 -3.856,-11.265c0,-4.82 1.192,-8.676 3.577,-11.543c2.384,-2.842 5.632,-4.288 9.64,-4.288c3.781,0 6.774,1.243 8.981,3.755Zm-14.613,2.664c-1.319,1.472 -2.131,3.526 -2.41,6.14l15.12,0c-0.05,-2.715 -0.659,-4.77 -1.852,-6.191c-1.217,-1.471 -2.968,-2.207 -5.276,-2.207c-2.335,0 -4.186,0.736 -5.582,2.258Zm32.068,0.38c-1.32,1.675 -2.005,4.618 -2.005,8.753c0,4.161 0.711,7.104 2.055,8.854c1.345,1.751 3.501,2.613 6.546,2.613c2.714,0 4.693,-0.964 6.012,-2.917c1.32,-1.979 2.005,-4.846 2.005,-8.601c0,-3.831 -0.685,-6.672 -2.005,-8.524c-1.319,-1.852 -3.348,-2.765 -6.139,-2.765c-3.019,0 -5.175,0.862 -6.469,2.587" style="fill:#3d3d3d;fill-rule:nonzero;"/><path d="M227.426,62.242c-0.975,-2.323 -12.254,-29.434 -12.254,-29.434c0,0 -2.634,-6.255 6.831,-10.699c9.464,-4.444 20.986,-10.04 20.986,-10.04l0,42.485c0,0 -6.821,6.763 -9.519,9.474c-2.451,2.464 -5.066,0.548 -6.044,-1.786Z" style="fill:url(#_Linear1);"/><path d="M258.552,62.242c0.974,-2.323 12.254,-29.434 12.254,-29.434c0,0 2.633,-6.255 -6.831,-10.699c-9.464,-4.444 -20.986,-10.04 -20.986,-10.04l0,42.485c0,0 6.82,6.763 9.518,9.474c2.451,2.464 5.066,0.548 6.045,-1.786Z" style="fill:url(#_Linear2);"/><path d="M242.989,12.069l-19.56,-9.489c0,0 -4.167,-1.837 -3.123,4.036l2.672,15.034l20.011,-9.581Z" style="fill:url(#_Linear3);"/><path d="M242.989,12.069l19.56,-9.489c0,0 4.167,-1.837 3.123,4.036l-2.673,15.034l-20.01,-9.581Z" style="fill:url(#_Linear4);"/></g><g><g><path d="M595.945,26.19c-0.512,2.479 -1.102,5.038 -1.772,7.676l-2.952,11.93l-4.804,0l-8.366,-26.605l5.138,0l3.169,10.598c0.958,3.328 1.733,6.337 2.323,9.028l0.118,0c0.578,-2.89 1.247,-5.853 2.008,-8.888l2.717,-10.738l4.961,0l2.716,10.738c0.761,3.009 1.431,5.972 2.008,8.888l0.118,0c0.722,-3.182 1.496,-6.191 2.323,-9.028l3.169,-10.598l5.138,0l-8.366,26.605l-4.803,0l-2.953,-11.93c-0.669,-2.691 -1.26,-5.25 -1.772,-7.676l-0.118,0Z" style="fill:#3d3d3d;fill-rule:nonzero;"/><path d="M624.088,42.496c0.905,0 1.85,-0.093 2.835,-0.279c0.984,-0.185 1.981,-0.451 2.992,-0.795l0,3.758c-0.604,0.265 -1.529,0.517 -2.776,0.756c-1.247,0.238 -2.539,0.357 -3.878,0.357c-1.352,0 -2.635,-0.175 -3.849,-0.526c-1.213,-0.352 -2.273,-0.918 -3.179,-1.701c-0.905,-0.782 -1.624,-1.796 -2.155,-3.042c-0.532,-1.246 -0.798,-2.757 -0.798,-4.533c0,-1.75 0.25,-3.281 0.749,-4.594c0.498,-1.312 1.168,-2.399 2.007,-3.261c0.84,-0.861 1.802,-1.508 2.884,-1.939c1.083,-0.43 2.202,-0.646 3.357,-0.646c1.207,0 2.319,0.186 3.336,0.557c1.018,0.371 1.897,0.954 2.638,1.75c0.742,0.795 1.319,1.819 1.733,3.072c0.413,1.253 0.62,2.734 0.62,4.444c-0.013,0.663 -0.033,1.226 -0.059,1.69l-12.501,0c0.066,0.888 0.263,1.647 0.591,2.277c0.328,0.63 0.758,1.14 1.289,1.531c0.532,0.391 1.152,0.676 1.861,0.855c0.708,0.179 1.476,0.269 2.303,0.269Zm-1.87,-12.766c-0.591,0 -1.116,0.109 -1.575,0.328c-0.459,0.219 -0.856,0.517 -1.191,0.895c-0.335,0.378 -0.601,0.818 -0.797,1.322c-0.197,0.504 -0.328,1.041 -0.394,1.611l7.5,0c0,-0.57 -0.075,-1.107 -0.226,-1.611c-0.151,-0.504 -0.374,-0.944 -0.67,-1.322c-0.295,-0.378 -0.662,-0.676 -1.102,-0.895c-0.44,-0.219 -0.955,-0.328 -1.545,-0.328Z" style="fill:#3d3d3d;fill-rule:nonzero;"/><path d="M652.108,35.834c0,1.737 -0.25,3.275 -0.748,4.613c-0.499,1.339 -1.152,2.44 -1.959,3.301c-0.807,0.862 -1.716,1.502 -2.727,1.919c-1.01,0.418 -2.027,0.626 -3.051,0.626c-0.722,0 -1.371,-0.089 -1.949,-0.268c-0.577,-0.179 -3.838,-0.229 -3.838,-0.229l-3.859,0c0.026,-0.57 0.049,-1.276 0.069,-2.117c0.02,-0.842 0.03,-1.641 0.03,-2.396l0,-24.279l4.665,0l0,8.013c0,0.57 -0.003,1.097 -0.01,1.581c-0.006,0.484 -0.016,0.858 -0.029,1.124l0.039,0c0.302,-0.213 0.63,-0.418 0.984,-0.617c0.355,-0.199 0.742,-0.378 1.162,-0.537c0.42,-0.159 0.873,-0.285 1.358,-0.378c0.486,-0.092 0.998,-0.139 1.536,-0.139c1.063,0 2.096,0.196 3.1,0.587c1.004,0.391 1.896,0.987 2.677,1.789c0.781,0.802 1.401,1.83 1.861,3.082c0.459,1.253 0.689,2.695 0.689,4.325Zm-4.823,0.239c0,-1.206 -0.145,-2.244 -0.433,-3.112c-0.289,-0.868 -0.666,-1.531 -1.132,-1.988c-0.466,-0.458 -0.952,-0.766 -1.457,-0.925c-0.505,-0.159 -1.007,-0.239 -1.506,-0.239c-0.682,0 -1.378,0.14 -2.087,0.418c-0.708,0.278 -1.351,0.649 -1.929,1.113l0,9.227c0.184,0.212 0.41,0.434 0.679,0.666c0.269,0.232 0.571,0.444 0.906,0.636c0.334,0.192 0.699,0.352 1.092,0.477c0.394,0.126 0.814,0.189 1.26,0.189c0.761,0 1.427,-0.155 1.998,-0.467c0.571,-0.311 1.05,-0.752 1.437,-1.322c0.387,-0.57 0.679,-1.25 0.876,-2.038c0.197,-0.789 0.296,-1.667 0.296,-2.635Z" style="fill:#3d3d3d;fill-rule:nonzero;"/><path d="M677.706,30.714c1.89,2.718 3.425,5.13 4.606,7.238l0.119,0c-0.158,-3.46 -0.237,-5.979 -0.237,-7.556l0,-12.05l4.823,0l0,26.605l-5.059,0l-8.583,-12.248c-1.509,-2.121 -3.071,-4.58 -4.685,-7.378l-0.118,0c0.157,3.261 0.236,5.787 0.236,7.576l0,12.05l-4.823,0l0,-26.605l5.059,0l8.662,12.368Z" style="fill:#3d3d3d;fill-rule:nonzero;"/><path d="M696.985,44.951l-4.823,0l0,-26.605l16.772,0l0,4.076l-11.949,0l0,6.88l10.217,0l0,4.077l-10.217,0l0,11.572Z" style="fill:#3d3d3d;fill-rule:nonzero;"/><path d="M724.828,21.965c-1.312,0 -2.523,0.219 -3.632,0.656c-1.109,0.438 -2.06,1.074 -2.854,1.909c-0.794,0.835 -1.414,1.866 -1.861,3.092c-0.446,1.226 -0.669,2.628 -0.669,4.206c0,1.564 0.203,2.939 0.61,4.126c0.407,1.186 0.991,2.177 1.752,2.972c0.761,0.796 1.69,1.396 2.786,1.8c1.096,0.404 2.339,0.606 3.73,0.606c0.998,0 2.015,-0.079 3.051,-0.238c1.037,-0.159 2.008,-0.391 2.914,-0.696l0,4.195c-0.919,0.265 -1.91,0.474 -2.973,0.627c-1.063,0.152 -2.165,0.228 -3.307,0.228c-2.231,0 -4.193,-0.321 -5.886,-0.964c-1.693,-0.643 -3.107,-1.551 -4.242,-2.724c-1.135,-1.173 -1.988,-2.578 -2.559,-4.216c-0.571,-1.637 -0.856,-3.443 -0.856,-5.418c0,-2.028 0.305,-3.911 0.915,-5.647c0.61,-1.737 1.49,-3.241 2.638,-4.514c1.148,-1.273 2.585,-2.273 4.311,-3.003c1.726,-0.729 3.678,-1.1 5.856,-1.113c1.116,0 2.172,0.076 3.17,0.229c0.997,0.152 1.896,0.367 2.697,0.646l0,4.136c-1.05,-0.332 -2.028,-0.564 -2.933,-0.696c-0.906,-0.133 -1.792,-0.199 -2.658,-0.199Z" style="fill:#3d3d3d;fill-rule:nonzero;"/><path d="M595.945,26.19c-0.512,2.479 -1.102,5.038 -1.772,7.676l-2.952,11.93l-4.804,0l-8.366,-26.605l5.138,0l3.169,10.598c0.958,3.328 1.733,6.337 2.323,9.028l0.118,0c0.578,-2.89 1.247,-5.853 2.008,-8.888l2.717,-10.738l4.961,0l2.716,10.738c0.761,3.009 1.431,5.972 2.008,8.888l0.118,0c0.722,-3.182 1.496,-6.191 2.323,-9.028l3.169,-10.598l5.138,0l-8.366,26.605l-4.803,0l-2.953,-11.93c-0.669,-2.691 -1.26,-5.25 -1.772,-7.676l-0.118,0Z" style="fill:#3d3d3d;fill-rule:nonzero;"/><path d="M624.088,42.496c0.905,0 1.85,-0.093 2.835,-0.279c0.984,-0.185 1.981,-0.451 2.992,-0.795l0,3.758c-0.604,0.265 -1.529,0.517 -2.776,0.756c-1.247,0.238 -2.539,0.357 -3.878,0.357c-1.352,0 -2.635,-0.175 -3.849,-0.526c-1.213,-0.352 -2.273,-0.918 -3.179,-1.701c-0.905,-0.782 -1.624,-1.796 -2.155,-3.042c-0.532,-1.246 -0.798,-2.757 -0.798,-4.533c0,-1.75 0.25,-3.281 0.749,-4.594c0.498,-1.312 1.168,-2.399 2.007,-3.261c0.84,-0.861 1.802,-1.508 2.884,-1.939c1.083,-0.43 2.202,-0.646 3.357,-0.646c1.207,0 2.319,0.186 3.336,0.557c1.018,0.371 1.897,0.954 2.638,1.75c0.742,0.795 1.319,1.819 1.733,3.072c0.413,1.253 0.62,2.734 0.62,4.444c-0.013,0.663 -0.033,1.226 -0.059,1.69l-12.501,0c0.066,0.888 0.263,1.647 0.591,2.277c0.328,0.63 0.758,1.14 1.289,1.531c0.532,0.391 1.152,0.676 1.861,0.855c0.708,0.179 1.476,0.269 2.303,0.269Zm-1.87,-12.766c-0.591,0 -1.116,0.109 -1.575,0.328c-0.459,0.219 -0.856,0.517 -1.191,0.895c-0.335,0.378 -0.601,0.818 -0.797,1.322c-0.197,0.504 -0.328,1.041 -0.394,1.611l7.5,0c0,-0.57 -0.075,-1.107 -0.226,-1.611c-0.151,-0.504 -0.374,-0.944 -0.67,-1.322c-0.295,-0.378 -0.662,-0.676 -1.102,-0.895c-0.44,-0.219 -0.955,-0.328 -1.545,-0.328Z" style="fill:#3d3d3d;fill-rule:nonzero;"/><path d="M652.108,35.834c0,1.737 -0.25,3.275 -0.748,4.613c-0.499,1.339 -1.152,2.44 -1.959,3.301c-0.807,0.862 -1.716,1.502 -2.727,1.919c-1.01,0.418 -2.027,0.626 -3.051,0.626c-0.722,0 -1.371,-0.089 -1.949,-0.268c-0.577,-0.179 -3.838,-0.229 -3.838,-0.229l-3.859,0c0.026,-0.57 0.049,-1.276 0.069,-2.117c0.02,-0.842 0.03,-1.641 0.03,-2.396l0,-24.279l4.665,0l0,8.013c0,0.57 -0.003,1.097 -0.01,1.581c-0.006,0.484 -0.016,0.858 -0.029,1.124l0.039,0c0.302,-0.213 0.63,-0.418 0.984,-0.617c0.355,-0.199 0.742,-0.378 1.162,-0.537c0.42,-0.159 0.873,-0.285 1.358,-0.378c0.486,-0.092 0.998,-0.139 1.536,-0.139c1.063,0 2.096,0.196 3.1,0.587c1.004,0.391 1.896,0.987 2.677,1.789c0.781,0.802 1.401,1.83 1.861,3.082c0.459,1.253 0.689,2.695 0.689,4.325Zm-4.823,0.239c0,-1.206 -0.145,-2.244 -0.433,-3.112c-0.289,-0.868 -0.666,-1.531 -1.132,-1.988c-0.466,-0.458 -0.952,-0.766 -1.457,-0.925c-0.505,-0.159 -1.007,-0.239 -1.506,-0.239c-0.682,0 -1.378,0.14 -2.087,0.418c-0.708,0.278 -1.351,0.649 -1.929,1.113l0,9.227c0.184,0.212 0.41,0.434 0.679,0.666c0.269,0.232 0.571,0.444 0.906,0.636c0.334,0.192 0.699,0.352 1.092,0.477c0.394,0.126 0.814,0.189 1.26,0.189c0.761,0 1.427,-0.155 1.998,-0.467c0.571,-0.311 1.05,-0.752 1.437,-1.322c0.387,-0.57 0.679,-1.25 0.876,-2.038c0.197,-0.789 0.296,-1.667 0.296,-2.635Z" style="fill:#3d3d3d;fill-rule:nonzero;"/><path d="M677.706,30.714c1.89,2.718 3.425,5.13 4.606,7.238l0.119,0c-0.158,-3.46 -0.237,-5.979 -0.237,-7.556l0,-12.05l4.823,0l0,26.605l-5.059,0l-8.583,-12.248c-1.509,-2.121 -3.071,-4.58 -4.685,-7.378l-0.118,0c0.157,3.261 0.236,5.787 0.236,7.576l0,12.05l-4.823,0l0,-26.605l5.059,0l8.662,12.368Z" style="fill:#3d3d3d;fill-rule:nonzero;"/><path d="M696.985,44.951l-4.823,0l0,-26.605l16.772,0l0,4.076l-11.949,0l0,6.88l10.217,0l0,4.077l-10.217,0l0,11.572Z" style="fill:#3d3d3d;fill-rule:nonzero;"/><path d="M724.828,21.965c-1.312,0 -2.523,0.219 -3.632,0.656c-1.109,0.438 -2.06,1.074 -2.854,1.909c-0.794,0.835 -1.414,1.866 -1.861,3.092c-0.446,1.226 -0.669,2.628 -0.669,4.206c0,1.564 0.203,2.939 0.61,4.126c0.407,1.186 0.991,2.177 1.752,2.972c0.761,0.796 1.69,1.396 2.786,1.8c1.096,0.404 2.339,0.606 3.73,0.606c0.998,0 2.015,-0.079 3.051,-0.238c1.037,-0.159 2.008,-0.391 2.914,-0.696l0,4.195c-0.919,0.265 -1.91,0.474 -2.973,0.627c-1.063,0.152 -2.165,0.228 -3.307,0.228c-2.231,0 -4.193,-0.321 -5.886,-0.964c-1.693,-0.643 -3.107,-1.551 -4.242,-2.724c-1.135,-1.173 -1.988,-2.578 -2.559,-4.216c-0.571,-1.637 -0.856,-3.443 -0.856,-5.418c0,-2.028 0.305,-3.911 0.915,-5.647c0.61,-1.737 1.49,-3.241 2.638,-4.514c1.148,-1.273 2.585,-2.273 4.311,-3.003c1.726,-0.729 3.678,-1.1 5.856,-1.113c1.116,0 2.172,0.076 3.17,0.229c0.997,0.152 1.896,0.367 2.697,0.646l0,4.136c-1.05,-0.332 -2.028,-0.564 -2.933,-0.696c-0.906,-0.133 -1.792,-0.199 -2.658,-0.199Z" style="fill:#3d3d3d;fill-rule:nonzero;"/></g><g><path d="M547.261,11.542c0,-5.096 -4.137,-9.234 -9.233,-9.234l-18.467,0c-5.096,0 -9.233,4.138 -9.233,9.234l0,18.466c0,5.096 4.137,9.233 9.233,9.233l18.467,0c5.096,0 9.233,-4.137 9.233,-9.233l0,-18.466Z" style="fill:#5ad6fe;stroke:#c3c3c3;stroke-width:4.62px;"/><path d="M565.728,22.537c0,-5.096 -4.138,-9.233 -9.234,-9.233l-18.466,0c-5.096,0 -9.233,4.137 -9.233,9.233l0,33.408c0,5.096 4.137,9.234 9.233,9.234l18.466,0c5.096,0 9.234,-4.138 9.234,-9.234l0,-33.408Z" style="fill:#fff;stroke:#c3c3c3;stroke-width:4.62px;"/><g><path d="M550.974,48.258c0,-2.927 2.376,-5.304 5.304,-5.304" style="fill:none;stroke:#01455b;stroke-width:4.62px;"/><path d="M546.731,48.258c0,-5.269 4.278,-9.547 9.547,-9.547" style="fill:none;stroke:#026f93;stroke-width:4.62px;"/><path d="M542.488,48.258c0,-7.611 6.179,-13.79 13.79,-13.79" style="fill:none;stroke:#02afe6;stroke-width:4.62px;"/><path d="M538.244,48.258c0,-9.953 8.081,-18.033 18.034,-18.033" style="fill:none;stroke:#5ad6fe;stroke-width:4.62px;"/></g></g></g><g><g><path d="M821.116,40.031l10.14,-5.854c0.414,-0.239 -0.031,-0.883 -0.993,-1.438l-18.294,-10.563c-0.962,-0.555 -2.078,-0.812 -2.492,-0.573l-10.14,5.854" style="fill:#00ffd6;stroke:#3d3d3d;stroke-width:2.66px;stroke-linejoin:miter;stroke-miterlimit:1;"/><path d="M821.116,27.457l20.28,-11.708c0.827,-0.478 0.718,-1.316 -0.243,-1.872l-18.295,-10.562c-0.961,-0.555 -2.414,-0.618 -3.241,-0.14l-20.28,11.708" style="fill:#00ffd6;stroke:#3d3d3d;stroke-width:2.66px;stroke-linejoin:miter;stroke-miterlimit:1;"/><path d="M799.337,40.031l-20.27,11.703c-0.833,0.481 -0.728,1.322 0.234,1.877l18.294,10.563c0.961,0.555 2.418,0.615 3.251,0.134l20.27,-11.702" style="fill:#7882ff;stroke:#3d3d3d;stroke-width:2.66px;stroke-linejoin:miter;stroke-miterlimit:1;"/><path d="M821.116,27.457l-21.779,-12.574l0,25.148l21.779,12.575l0,-25.149Z" style="fill:#fff;"/><clipPath id="_clip5"><path d="M821.116,27.457l-21.779,-12.574l0,25.148l21.779,12.575l0,-25.149Z"/></clipPath><g clip-path="url(#_clip5)"><path d="M819.43,26.484c11.089,6.403 20.093,21.997 20.093,34.802c0,12.805 -9.004,18.003 -20.093,11.6c-11.09,-6.402 -20.093,-21.996 -20.093,-34.801c0,-12.806 9.003,-18.004 20.093,-11.601Z" style="fill:url(#_Radial6);"/><path d="M799.337,-8.318c11.09,6.403 20.093,21.997 20.093,34.802c0,12.805 -9.003,18.003 -20.093,11.601c-11.089,-6.403 -20.093,-21.997 -20.093,-34.802c0,-12.805 9.004,-18.003 20.093,-11.601Z" style="fill:url(#_Radial7);"/></g><path d="M821.116,27.457l-21.779,-12.574" style="fill:none;stroke:#ff0076;stroke-width:1.77px;stroke-dasharray:0,3.55,0,0;"/><path d="M821.116,52.606l-21.779,-12.575" style="fill:none;stroke:#ff0076;stroke-width:1.77px;stroke-dasharray:0,3.55,0,0;"/><path d="M799.407,40.072l-0.07,-25.189" style="fill:none;stroke:#3d3d3d;stroke-width:2.66px;stroke-linejoin:miter;stroke-miterlimit:1;"/><path d="M821.116,52.606l0,-25.149" style="fill:none;stroke:#3d3d3d;stroke-width:2.66px;stroke-linejoin:miter;stroke-miterlimit:1;"/></g><g><path d="M859.099,19.089c0,0.74 -0.191,1.405 -0.572,1.995c-0.382,0.59 -0.94,1.052 -1.675,1.386c-0.734,0.334 -1.606,0.501 -2.613,0.501c-1.208,0 -2.205,-0.228 -2.99,-0.684c-0.556,-0.329 -1.009,-0.767 -1.357,-1.315c-0.347,-0.549 -0.521,-1.082 -0.521,-1.6c0,-0.3 0.104,-0.558 0.313,-0.772c0.208,-0.214 0.474,-0.321 0.797,-0.321c0.262,0 0.483,0.083 0.664,0.25c0.181,0.167 0.335,0.415 0.463,0.743c0.156,0.39 0.325,0.716 0.506,0.977c0.181,0.262 0.435,0.478 0.764,0.647c0.328,0.17 0.76,0.255 1.294,0.255c0.735,0 1.332,-0.171 1.791,-0.513c0.459,-0.343 0.689,-0.77 0.689,-1.282c0,-0.407 -0.124,-0.736 -0.372,-0.99c-0.247,-0.253 -0.567,-0.447 -0.96,-0.58c-0.392,-0.134 -0.917,-0.276 -1.574,-0.426c-0.879,-0.206 -1.616,-0.447 -2.209,-0.722c-0.592,-0.276 -1.063,-0.652 -1.411,-1.128c-0.348,-0.476 -0.522,-1.067 -0.522,-1.774c0,-0.674 0.184,-1.272 0.551,-1.795c0.368,-0.524 0.9,-0.926 1.595,-1.207c0.696,-0.281 1.515,-0.422 2.455,-0.422c0.752,0 1.402,0.094 1.95,0.28c0.549,0.187 1.004,0.434 1.366,0.743c0.361,0.309 0.626,0.633 0.793,0.973c0.167,0.34 0.25,0.671 0.25,0.994c0,0.295 -0.104,0.561 -0.313,0.797c-0.209,0.237 -0.469,0.355 -0.781,0.355c-0.284,0 -0.499,-0.071 -0.647,-0.213c-0.147,-0.142 -0.307,-0.374 -0.48,-0.697c-0.223,-0.462 -0.49,-0.823 -0.802,-1.082c-0.311,-0.258 -0.812,-0.388 -1.503,-0.388c-0.64,0 -1.156,0.141 -1.549,0.422c-0.392,0.281 -0.588,0.619 -0.588,1.014c0,0.245 0.067,0.457 0.2,0.635c0.134,0.178 0.317,0.331 0.551,0.459c0.234,0.128 0.471,0.229 0.71,0.301c0.239,0.072 0.635,0.178 1.186,0.317c0.69,0.162 1.315,0.34 1.874,0.535c0.56,0.195 1.036,0.431 1.428,0.709c0.393,0.279 0.699,0.631 0.919,1.057c0.22,0.426 0.33,0.948 0.33,1.566Z" style="fill:#3d3d3d;fill-rule:nonzero;"/><path d="M869.219,20.149c0,0.284 -0.085,0.587 -0.254,0.91c-0.17,0.323 -0.429,0.631 -0.777,0.923c-0.348,0.292 -0.786,0.527 -1.315,0.706c-0.529,0.178 -1.125,0.267 -1.787,0.267c-1.408,0 -2.508,-0.411 -3.298,-1.232c-0.791,-0.821 -1.186,-1.922 -1.186,-3.303c0,-0.935 0.181,-1.761 0.543,-2.48c0.361,-0.718 0.885,-1.273 1.569,-1.665c0.685,-0.393 1.504,-0.589 2.455,-0.589c0.591,0 1.132,0.086 1.625,0.259c0.492,0.172 0.91,0.395 1.252,0.668c0.343,0.272 0.604,0.563 0.785,0.872c0.181,0.309 0.271,0.597 0.271,0.865c0,0.272 -0.101,0.503 -0.304,0.693c-0.203,0.189 -0.45,0.284 -0.739,0.284c-0.19,0 -0.347,-0.049 -0.472,-0.147c-0.125,-0.097 -0.266,-0.254 -0.422,-0.471c-0.278,-0.423 -0.569,-0.741 -0.872,-0.952c-0.304,-0.212 -0.689,-0.318 -1.157,-0.318c-0.674,0 -1.216,0.263 -1.628,0.79c-0.412,0.526 -0.618,1.245 -0.618,2.158c0,0.429 0.053,0.823 0.158,1.182c0.106,0.359 0.259,0.665 0.46,0.918c0.2,0.253 0.442,0.446 0.726,0.576c0.284,0.131 0.596,0.197 0.935,0.197c0.457,0 0.848,-0.106 1.174,-0.318c0.325,-0.211 0.613,-0.534 0.864,-0.968c0.139,-0.256 0.289,-0.457 0.451,-0.602c0.161,-0.144 0.359,-0.217 0.593,-0.217c0.278,0 0.509,0.106 0.693,0.318c0.184,0.211 0.275,0.437 0.275,0.676Z" style="fill:#3d3d3d;fill-rule:nonzero;"/><path d="M873.47,19.681l0,1.904c0,0.462 -0.109,0.809 -0.326,1.04c-0.217,0.231 -0.493,0.346 -0.827,0.346c-0.328,0 -0.598,-0.116 -0.81,-0.35c-0.211,-0.234 -0.317,-0.579 -0.317,-1.036l0,-6.346c0,-1.024 0.37,-1.536 1.111,-1.536c0.378,0 0.651,0.119 0.818,0.359c0.167,0.239 0.259,0.592 0.276,1.06c0.272,-0.468 0.552,-0.821 0.839,-1.06c0.286,-0.24 0.669,-0.359 1.148,-0.359c0.479,0 0.944,0.119 1.394,0.359c0.451,0.239 0.677,0.556 0.677,0.952c0,0.278 -0.096,0.508 -0.288,0.688c-0.192,0.181 -0.4,0.272 -0.622,0.272c-0.084,0 -0.286,-0.052 -0.606,-0.155c-0.32,-0.103 -0.602,-0.154 -0.847,-0.154c-0.334,0 -0.607,0.088 -0.819,0.263c-0.211,0.175 -0.375,0.436 -0.492,0.781c-0.117,0.345 -0.198,0.755 -0.242,1.231c-0.045,0.476 -0.067,1.057 -0.067,1.741Z" style="fill:#3d3d3d;fill-rule:nonzero;"/><path d="M884.634,18.896l-4.459,0c0.006,0.518 0.11,0.975 0.313,1.37c0.203,0.395 0.473,0.693 0.81,0.893c0.337,0.201 0.709,0.301 1.115,0.301c0.273,0 0.522,-0.032 0.747,-0.096c0.226,-0.064 0.444,-0.164 0.656,-0.301c0.211,-0.136 0.406,-0.282 0.584,-0.438c0.179,-0.156 0.41,-0.367 0.693,-0.635c0.117,-0.1 0.284,-0.15 0.501,-0.15c0.234,0 0.424,0.064 0.568,0.192c0.145,0.128 0.217,0.309 0.217,0.543c0,0.206 -0.08,0.447 -0.242,0.722c-0.161,0.276 -0.405,0.54 -0.73,0.793c-0.326,0.254 -0.735,0.464 -1.228,0.631c-0.493,0.167 -1.059,0.25 -1.699,0.25c-1.464,0 -2.603,-0.417 -3.416,-1.252c-0.812,-0.835 -1.219,-1.968 -1.219,-3.399c0,-0.673 0.101,-1.298 0.301,-1.874c0.2,-0.577 0.493,-1.071 0.877,-1.483c0.384,-0.412 0.857,-0.727 1.419,-0.947c0.563,-0.22 1.186,-0.33 1.871,-0.33c0.89,0 1.655,0.188 2.292,0.563c0.637,0.376 1.115,0.862 1.432,1.458c0.317,0.595 0.476,1.202 0.476,1.82c0,0.573 -0.164,0.945 -0.493,1.115c-0.328,0.17 -0.79,0.254 -1.386,0.254Zm-4.459,-1.294l4.134,0c-0.056,-0.779 -0.266,-1.362 -0.631,-1.749c-0.365,-0.387 -0.845,-0.581 -1.44,-0.581c-0.568,0 -1.034,0.197 -1.399,0.589c-0.365,0.393 -0.586,0.973 -0.664,1.741Z" style="fill:#3d3d3d;fill-rule:nonzero;"/><path d="M894.797,18.896l-4.46,0c0.006,0.518 0.11,0.975 0.314,1.37c0.203,0.395 0.473,0.693 0.81,0.893c0.336,0.201 0.708,0.301 1.114,0.301c0.273,0 0.522,-0.032 0.748,-0.096c0.225,-0.064 0.444,-0.164 0.655,-0.301c0.212,-0.136 0.407,-0.282 0.585,-0.438c0.178,-0.156 0.409,-0.367 0.693,-0.635c0.117,-0.1 0.284,-0.15 0.501,-0.15c0.234,0 0.423,0.064 0.568,0.192c0.144,0.128 0.217,0.309 0.217,0.543c0,0.206 -0.081,0.447 -0.242,0.722c-0.162,0.276 -0.405,0.54 -0.731,0.793c-0.326,0.254 -0.735,0.464 -1.228,0.631c-0.492,0.167 -1.059,0.25 -1.699,0.25c-1.464,0 -2.602,-0.417 -3.415,-1.252c-0.813,-0.835 -1.219,-1.968 -1.219,-3.399c0,-0.673 0.1,-1.298 0.3,-1.874c0.201,-0.577 0.493,-1.071 0.877,-1.483c0.384,-0.412 0.857,-0.727 1.42,-0.947c0.562,-0.22 1.185,-0.33 1.87,-0.33c0.891,0 1.655,0.188 2.292,0.563c0.638,0.376 1.115,0.862 1.432,1.458c0.318,0.595 0.476,1.202 0.476,1.82c0,0.573 -0.164,0.945 -0.492,1.115c-0.329,0.17 -0.791,0.254 -1.386,0.254Zm-4.46,-1.294l4.134,0c-0.056,-0.779 -0.266,-1.362 -0.631,-1.749c-0.364,-0.387 -0.844,-0.581 -1.44,-0.581c-0.568,0 -1.034,0.197 -1.399,0.589c-0.364,0.393 -0.586,0.973 -0.664,1.741Z" style="fill:#3d3d3d;fill-rule:nonzero;"/><path d="M900.667,14.963l0,0.276c0.401,-0.529 0.839,-0.917 1.315,-1.165c0.476,-0.248 1.023,-0.371 1.641,-0.371c0.601,0 1.138,0.13 1.612,0.392c0.473,0.262 0.826,0.632 1.06,1.111c0.15,0.278 0.248,0.579 0.292,0.901c0.045,0.323 0.067,0.735 0.067,1.236l0,4.242c0,0.457 -0.104,0.802 -0.313,1.036c-0.209,0.234 -0.48,0.35 -0.814,0.35c-0.34,0 -0.615,-0.119 -0.827,-0.359c-0.211,-0.239 -0.317,-0.581 -0.317,-1.027l0,-3.799c0,-0.752 -0.105,-1.326 -0.313,-1.724c-0.209,-0.399 -0.625,-0.598 -1.249,-0.598c-0.406,0 -0.776,0.122 -1.11,0.364c-0.334,0.242 -0.579,0.574 -0.735,0.998c-0.111,0.339 -0.167,0.974 -0.167,1.903l0,2.856c0,0.462 -0.107,0.809 -0.322,1.04c-0.214,0.231 -0.491,0.346 -0.83,0.346c-0.329,0 -0.599,-0.119 -0.81,-0.359c-0.212,-0.239 -0.318,-0.581 -0.318,-1.027l0,-6.588c0,-0.434 0.095,-0.759 0.284,-0.973c0.189,-0.214 0.448,-0.321 0.777,-0.321c0.2,0 0.381,0.047 0.542,0.141c0.162,0.095 0.291,0.237 0.389,0.426c0.097,0.19 0.146,0.421 0.146,0.693Z" style="fill:#3d3d3d;fill-rule:nonzero;"/><path d="M857.111,29.535l-4.885,0l0,3.131l4.084,0c0.378,0 0.661,0.085 0.847,0.255c0.187,0.17 0.28,0.397 0.28,0.68c0,0.284 -0.095,0.51 -0.284,0.677c-0.189,0.167 -0.47,0.25 -0.843,0.25l-4.084,0l0,4.034c0,0.512 -0.115,0.892 -0.346,1.139c-0.231,0.248 -0.528,0.372 -0.889,0.372c-0.368,0 -0.667,-0.125 -0.898,-0.376c-0.231,-0.25 -0.347,-0.629 -0.347,-1.135l0,-9.42c0,-0.356 0.053,-0.647 0.159,-0.872c0.106,-0.226 0.271,-0.39 0.497,-0.493c0.225,-0.103 0.513,-0.154 0.864,-0.154l5.845,0c0.396,0 0.689,0.087 0.881,0.263c0.192,0.175 0.288,0.405 0.288,0.689c0,0.289 -0.096,0.521 -0.288,0.697c-0.192,0.175 -0.485,0.263 -0.881,0.263Z" style="fill:#ff0076;fill-rule:nonzero;"/><path d="M867.85,35.439c0,0.679 -0.106,1.305 -0.317,1.878c-0.212,0.574 -0.518,1.066 -0.919,1.478c-0.401,0.412 -0.88,0.728 -1.436,0.948c-0.557,0.22 -1.183,0.33 -1.879,0.33c-0.69,0 -1.311,-0.111 -1.862,-0.334c-0.551,-0.223 -1.029,-0.541 -1.432,-0.956c-0.404,-0.415 -0.71,-0.905 -0.919,-1.47c-0.209,-0.565 -0.313,-1.19 -0.313,-1.874c0,-0.691 0.106,-1.323 0.317,-1.896c0.212,-0.573 0.515,-1.063 0.911,-1.47c0.395,-0.406 0.874,-0.719 1.436,-0.939c0.562,-0.22 1.183,-0.33 1.862,-0.33c0.69,0 1.317,0.111 1.879,0.334c0.562,0.223 1.044,0.54 1.444,0.952c0.401,0.412 0.706,0.902 0.915,1.47c0.209,0.568 0.313,1.194 0.313,1.879Zm-2.288,0c0,-0.93 -0.205,-1.654 -0.614,-2.172c-0.409,-0.517 -0.959,-0.776 -1.649,-0.776c-0.445,0 -0.838,0.115 -1.177,0.346c-0.34,0.231 -0.602,0.572 -0.785,1.023c-0.184,0.451 -0.276,0.977 -0.276,1.579c0,0.595 0.091,1.116 0.271,1.561c0.181,0.445 0.44,0.786 0.777,1.023c0.337,0.237 0.733,0.355 1.19,0.355c0.69,0 1.24,-0.26 1.649,-0.781c0.409,-0.52 0.614,-1.24 0.614,-2.158Z" style="fill:#ff0076;fill-rule:nonzero;"/><path d="M869.645,38.687l0,-9.887c0,-0.456 0.102,-0.802 0.305,-1.035c0.203,-0.234 0.477,-0.351 0.823,-0.351c0.345,0 0.623,0.115 0.835,0.346c0.211,0.231 0.317,0.578 0.317,1.04l0,9.887c0,0.462 -0.107,0.808 -0.322,1.039c-0.214,0.231 -0.491,0.347 -0.83,0.347c-0.334,0 -0.606,-0.12 -0.815,-0.359c-0.208,-0.239 -0.313,-0.582 -0.313,-1.027Z" style="fill:#ff0076;fill-rule:nonzero;"/><path d="M880.526,38.77l0,-0.225c-0.306,0.351 -0.608,0.636 -0.906,0.856c-0.298,0.22 -0.621,0.387 -0.969,0.501c-0.348,0.114 -0.728,0.171 -1.14,0.171c-0.545,0 -1.05,-0.116 -1.515,-0.347c-0.465,-0.231 -0.867,-0.56 -1.207,-0.989c-0.339,-0.429 -0.597,-0.933 -0.772,-1.511c-0.176,-0.579 -0.263,-1.206 -0.263,-1.879c0,-1.425 0.348,-2.536 1.043,-3.332c0.696,-0.796 1.612,-1.194 2.748,-1.194c0.657,0 1.211,0.113 1.661,0.338c0.451,0.225 0.891,0.572 1.32,1.04l0,-3.366c0,-0.467 0.093,-0.821 0.28,-1.06c0.186,-0.239 0.452,-0.359 0.797,-0.359c0.345,0 0.611,0.11 0.797,0.33c0.187,0.22 0.28,0.544 0.28,0.972l0,10.054c0,0.435 -0.1,0.76 -0.3,0.977c-0.201,0.217 -0.46,0.326 -0.777,0.326c-0.312,0 -0.569,-0.113 -0.772,-0.338c-0.204,-0.226 -0.305,-0.547 -0.305,-0.965Zm-4.484,-3.348c0,0.618 0.096,1.144 0.288,1.578c0.192,0.434 0.455,0.761 0.789,0.981c0.334,0.22 0.698,0.33 1.094,0.33c0.401,0 0.767,-0.104 1.098,-0.313c0.331,-0.209 0.595,-0.529 0.793,-0.96c0.198,-0.432 0.297,-0.97 0.297,-1.616c0,-0.607 -0.099,-1.129 -0.297,-1.566c-0.198,-0.437 -0.465,-0.771 -0.802,-1.002c-0.336,-0.231 -0.705,-0.346 -1.106,-0.346c-0.417,0 -0.79,0.118 -1.119,0.354c-0.328,0.237 -0.583,0.577 -0.764,1.019c-0.181,0.443 -0.271,0.956 -0.271,1.541Z" style="fill:#ff0076;fill-rule:nonzero;"/><path d="M857.629,55.58l-0.584,-1.537l-4.977,0l-0.585,1.57c-0.228,0.612 -0.423,1.026 -0.584,1.24c-0.162,0.214 -0.426,0.322 -0.794,0.322c-0.311,0 -0.587,-0.115 -0.826,-0.343c-0.24,-0.228 -0.359,-0.487 -0.359,-0.776c0,-0.167 0.027,-0.34 0.083,-0.518c0.056,-0.178 0.148,-0.426 0.276,-0.743l3.131,-7.95c0.089,-0.228 0.196,-0.502 0.322,-0.822c0.125,-0.32 0.258,-0.586 0.4,-0.798c0.142,-0.211 0.329,-0.383 0.56,-0.513c0.231,-0.131 0.516,-0.197 0.856,-0.197c0.345,0 0.633,0.066 0.864,0.197c0.231,0.13 0.418,0.299 0.56,0.505c0.141,0.206 0.261,0.427 0.359,0.664c0.097,0.236 0.221,0.552 0.371,0.947l3.198,7.9c0.251,0.601 0.376,1.038 0.376,1.311c0,0.284 -0.118,0.544 -0.355,0.781c-0.236,0.236 -0.522,0.355 -0.856,0.355c-0.195,0 -0.362,-0.035 -0.501,-0.105c-0.139,-0.069 -0.256,-0.164 -0.35,-0.284c-0.095,-0.119 -0.197,-0.303 -0.305,-0.551c-0.109,-0.248 -0.202,-0.466 -0.28,-0.655Zm-4.91,-3.399l3.658,0l-1.846,-5.052l-1.812,5.052Z" style="fill:#3d3d3d;fill-rule:nonzero;"/><path d="M866.848,52.198l-2.271,0l0,3.465c0,0.496 -0.117,0.871 -0.351,1.127c-0.234,0.257 -0.529,0.385 -0.885,0.385c-0.373,0 -0.674,-0.127 -0.902,-0.38c-0.228,-0.254 -0.342,-0.625 -0.342,-1.115l0,-9.436c0,-0.546 0.125,-0.935 0.375,-1.169c0.251,-0.234 0.649,-0.351 1.194,-0.351l3.182,0c0.941,0 1.664,0.073 2.171,0.217c0.501,0.139 0.934,0.37 1.298,0.693c0.365,0.323 0.642,0.718 0.831,1.186c0.19,0.468 0.284,0.994 0.284,1.578c0,1.247 -0.384,2.192 -1.152,2.835c-0.768,0.643 -1.912,0.965 -3.432,0.965Zm-0.601,-5.612l-1.67,0l0,3.741l1.67,0c0.584,0 1.073,-0.061 1.465,-0.183c0.393,-0.123 0.692,-0.323 0.898,-0.602c0.206,-0.278 0.309,-0.643 0.309,-1.094c0,-0.54 -0.159,-0.979 -0.476,-1.319c-0.356,-0.362 -1.089,-0.543 -2.196,-0.543Z" style="fill:#3d3d3d;fill-rule:nonzero;"/><path d="M873.603,55.663l0,-9.645c0,-0.501 0.114,-0.876 0.343,-1.127c0.228,-0.25 0.523,-0.376 0.885,-0.376c0.373,0 0.675,0.124 0.906,0.372c0.231,0.248 0.346,0.625 0.346,1.131l0,9.645c0,0.507 -0.115,0.885 -0.346,1.136c-0.231,0.25 -0.533,0.376 -0.906,0.376c-0.356,0 -0.65,-0.127 -0.881,-0.38c-0.231,-0.254 -0.347,-0.631 -0.347,-1.132Z" style="fill:#3d3d3d;fill-rule:nonzero;"/></g></g><g><g><path d="M1014.47,49.029c8.75,0.162 11.266,-3.939 9.293,-8.362c-1.978,-4.43 -6.563,-8.437 -7.498,-13.027c-0.923,-4.527 1.772,-7.27 9.27,-8.322" style="fill:none;stroke:#3d3d3d;stroke-width:3.48px;"/><path d="M1039.61,14.083c-0.178,-0.664 -0.862,-1.059 -1.526,-0.881l-4.062,1.088c-0.664,0.178 -1.059,0.862 -0.881,1.527l0.645,2.407c0.178,0.664 0.862,1.059 1.526,0.881l4.062,-1.088c0.664,-0.178 1.059,-0.862 0.881,-1.526l-0.645,-2.408Z" style="fill:#961dd2;"/><path d="M1034.4,14.331c-0.148,-0.55 -0.714,-0.877 -1.264,-0.73l-8.182,2.192c-0.55,0.148 -0.507,0.824 -0.729,1.264c-0.371,0.733 -2.864,3.549 -2.864,3.549c0,0 3.548,1.123 4.237,1.577c0.412,0.272 0.714,0.877 1.264,0.73l8.182,-2.193c0.55,-0.147 0.877,-0.713 0.729,-1.263l-1.373,-5.126Z" style="fill:#3d3d3d;"/></g><g><path d="M1013.33,65.712l-22.094,-14.044" style="fill:none;stroke:#808080;stroke-width:3.48px;"/><path d="M987.328,65.536l-22.093,-14.044" style="fill:none;stroke:#808080;stroke-width:3.48px;"/><path d="M987.617,65.712l11.926,-51.284l13.788,51.284" style="fill:none;stroke:#3d3d3d;stroke-width:3.48px;"/><path d="M1006.15,47.197l0.147,-3.445l-3.446,-0.147" style="fill:none;stroke:#e952ad;stroke-width:1.63px;stroke-linejoin:miter;stroke-miterlimit:10;"/><path d="M994.744,47.633l-0.41,-3.424l3.424,-0.41" style="fill:none;stroke:#e952ad;stroke-width:1.63px;stroke-linejoin:miter;stroke-miterlimit:10;"/><path d="M1006.3,43.752c-1.709,1.395 -3.899,2.233 -6.286,2.233c-2.113,0 -4.073,-0.657 -5.68,-1.776" style="fill:none;stroke:#e952ad;stroke-width:1.63px;"/></g><g><path d="M965.752,6.08c-0.284,-0.467 -0.703,-0.789 -1.255,-0.967l1.574,-2.71l0,-0.52l-4.18,0l-1.541,5.238l-1.541,-5.238l-1.116,0l0.51,1.711l-1.042,3.527l-1.541,-5.238l-1.116,0l2.551,8.607l0.106,0l1.594,-5.334l1.595,5.334l0.106,0l2.184,-7.37l0.103,-0.174l1.797,0l-1.489,2.571l0,0.51l0.426,0c0.546,0 0.945,0.166 1.201,0.5c0.22,0.283 0.329,0.683 0.329,1.2c0,0.468 -0.102,0.868 -0.308,1.201c-0.205,0.333 -0.457,0.499 -0.754,0.499c-0.283,0 -0.53,-0.094 -0.74,-0.281c-0.208,-0.188 -0.377,-0.445 -0.505,-0.77l-0.872,0.361c0.177,0.538 0.451,0.965 0.819,1.28c0.368,0.315 0.801,0.473 1.297,0.473c0.659,0 1.195,-0.266 1.61,-0.797c0.415,-0.531 0.623,-1.187 0.623,-1.966c0,-0.63 -0.142,-1.18 -0.425,-1.647Z" style="fill:#808080;fill-rule:nonzero;"/><g><path d="M970.502,1.835l0.181,1.098l-0.641,1.224c0,0 -0.245,-0.519 -0.653,-0.807c-0.344,-0.242 -0.568,-0.295 -0.918,-0.222c-0.45,0.093 -0.961,0.63 -1.183,1.293c-0.267,0.794 -0.269,1.178 -0.278,1.531c-0.015,0.565 0.074,0.899 0.074,0.899c0,0 -0.388,-0.718 -0.385,-1.771c0.003,-0.751 0.121,-1.433 0.468,-2.105c0.306,-0.591 0.761,-0.946 1.165,-0.988c0.417,-0.043 0.747,0.158 1.002,0.376c0.267,0.228 0.537,0.728 0.537,0.728l0.631,-1.256Z" style="fill:#808080;fill-rule:nonzero;"/><path d="M970.581,8.052c0,0 -0.283,0.505 -0.459,0.7c-0.177,0.194 -0.492,0.538 -0.881,0.709c-0.39,0.172 -0.594,0.204 -0.979,0.167c-0.385,-0.037 -0.742,-0.259 -0.868,-0.352c-0.124,-0.093 -0.444,-0.367 -0.625,-0.621c-0.181,-0.256 -0.464,-0.765 -0.464,-0.765c0,0 0.157,0.511 0.257,0.728c0.056,0.124 0.231,0.506 0.478,0.838c0.23,0.311 0.679,0.845 1.361,0.965c0.682,0.12 1.15,-0.186 1.266,-0.259c0.116,-0.075 0.36,-0.28 0.515,-0.445c0.161,-0.172 0.314,-0.393 0.399,-0.524c0.063,-0.097 0.163,-0.293 0.163,-0.293l-0.163,-0.848Z" style="fill:#808080;fill-rule:nonzero;"/><path d="M971.343,1.979c0.074,0 0.108,0.021 0.108,0.073c0,0.049 -0.034,0.067 -0.106,0.067l-0.067,0l0,-0.14l0.065,0Zm0.014,-0.051l-0.158,0l0,0.42l0.079,0l0,-0.179l0.078,0l0.085,0.179l0.089,0l-0.094,-0.192c0.061,-0.012 0.096,-0.053 0.096,-0.113c0,-0.076 -0.058,-0.115 -0.175,-0.115Zm0.312,0.22c0,0.086 -0.033,0.165 -0.094,0.224c-0.064,0.062 -0.143,0.094 -0.23,0.094c-0.083,0 -0.164,-0.033 -0.224,-0.095c-0.061,-0.062 -0.095,-0.141 -0.095,-0.226c0,-0.084 0.035,-0.166 0.098,-0.23c0.059,-0.06 0.138,-0.092 0.224,-0.092c0.088,0 0.167,0.033 0.229,0.096c0.06,0.06 0.092,0.14 0.092,0.229Zm-0.322,-0.373c-0.1,0 -0.189,0.036 -0.257,0.105c-0.072,0.073 -0.112,0.168 -0.112,0.265c0,0.098 0.038,0.189 0.108,0.26c0.071,0.072 0.162,0.111 0.261,0.111c0.096,0 0.19,-0.039 0.263,-0.11c0.07,-0.068 0.108,-0.159 0.108,-0.261c0,-0.098 -0.039,-0.191 -0.107,-0.26c-0.071,-0.072 -0.163,-0.11 -0.264,-0.11Z" style="fill:#808080;"/></g></g><g><path d="M961.897,29.828l28.921,-14.461l0,28.921l-28.921,-14.46Z" style="fill:none;"/><clipPath id="_clip8"><path d="M961.897,29.828l28.921,-14.461l0,28.921l-28.921,-14.46Z"/></clipPath><g clip-path="url(#_clip8)"><path d="M981.715,16.783c3.792,2.762 6.259,7.237 6.259,12.283l0,1.523c0,5.046 -2.467,9.521 -6.259,12.283" style="fill:none;stroke:#e95271;stroke-width:3.48px;"/><path d="M977.392,21.615c2.387,1.739 3.94,4.556 3.94,7.733l0,0.959c0,3.177 -1.553,5.994 -3.94,7.733" style="fill:none;stroke:#e97252;stroke-width:3.48px;"/><path d="M972.148,24.549c1.535,1.118 2.533,2.928 2.533,4.97l0,0.617c0,2.042 -0.998,3.852 -2.533,4.97" style="fill:none;stroke:#e9b152;stroke-width:3.48px;"/></g><path d="M978.627,43.146c-1.386,0.491 -2.876,0.76 -4.427,0.765l-0.044,0l-9.347,0l0,-28.167l9.347,0c1.567,0 3.072,0.27 4.471,0.765" style="fill:none;stroke:#3d3d3d;stroke-width:3.48px;"/></g><g><path d="M1028.93,19.866l-1.126,-1.943l-0.011,2.248c-0.001,0.171 -0.006,0.294 -0.014,0.37c-0.008,0.076 -0.037,0.151 -0.087,0.223c-0.051,0.072 -0.13,0.123 -0.238,0.152c-0.087,0.023 -0.164,0.026 -0.229,0.009c-0.065,-0.018 -0.123,-0.052 -0.174,-0.102c-0.051,-0.05 -0.098,-0.113 -0.142,-0.189c-0.045,-0.076 -0.085,-0.146 -0.121,-0.212l-1.212,-2.196c-0.071,-0.127 -0.116,-0.226 -0.136,-0.298c-0.024,-0.09 -0.013,-0.175 0.034,-0.254c0.047,-0.079 0.118,-0.131 0.211,-0.156c0.129,-0.035 0.227,-0.017 0.293,0.054c0.067,0.071 0.138,0.18 0.214,0.328l0.914,1.582l0.091,-1.71c-0.002,-0.157 0.003,-0.277 0.013,-0.361c0.009,-0.085 0.041,-0.164 0.094,-0.238c0.054,-0.074 0.139,-0.126 0.257,-0.158c0.119,-0.032 0.219,-0.028 0.301,0.013c0.081,0.04 0.144,0.091 0.188,0.152c0.043,0.062 0.108,0.166 0.193,0.311l0.938,1.434l0.001,-1.826c-0.006,-0.112 -0.007,-0.201 -0.004,-0.267c0.004,-0.066 0.024,-0.129 0.059,-0.19c0.036,-0.06 0.1,-0.103 0.192,-0.128c0.092,-0.024 0.179,-0.015 0.259,0.029c0.081,0.044 0.134,0.112 0.159,0.204c0.017,0.066 0.027,0.174 0.031,0.327l0.049,2.508c0.002,0.169 0.001,0.294 -0.006,0.375c-0.006,0.081 -0.033,0.158 -0.081,0.23c-0.048,0.073 -0.129,0.124 -0.244,0.155c-0.108,0.029 -0.201,0.025 -0.281,-0.012c-0.08,-0.036 -0.141,-0.085 -0.185,-0.146c-0.043,-0.06 -0.11,-0.166 -0.2,-0.318Z" style="fill:#fff;fill-rule:nonzero;"/><path d="M1033.99,17.578l0.18,0.669c0.023,0.089 0.034,0.163 0.031,0.221c-0.004,0.058 -0.023,0.114 -0.058,0.17c-0.036,0.055 -0.085,0.113 -0.147,0.172c-0.181,0.171 -0.362,0.309 -0.543,0.414c-0.181,0.104 -0.387,0.188 -0.618,0.249c-0.268,0.072 -0.524,0.096 -0.767,0.073c-0.243,-0.023 -0.463,-0.093 -0.661,-0.208c-0.198,-0.116 -0.369,-0.275 -0.512,-0.476c-0.143,-0.202 -0.252,-0.441 -0.326,-0.717c-0.073,-0.272 -0.099,-0.532 -0.079,-0.779c0.021,-0.247 0.089,-0.471 0.204,-0.67c0.115,-0.199 0.274,-0.371 0.478,-0.515c0.203,-0.144 0.447,-0.254 0.733,-0.331c0.236,-0.063 0.452,-0.087 0.65,-0.073c0.198,0.014 0.366,0.054 0.504,0.119c0.139,0.065 0.251,0.143 0.336,0.235c0.086,0.091 0.14,0.178 0.162,0.26c0.024,0.089 0.011,0.174 -0.038,0.254c-0.049,0.081 -0.119,0.133 -0.212,0.158c-0.05,0.014 -0.102,0.015 -0.156,0.003c-0.053,-0.011 -0.101,-0.034 -0.144,-0.068c-0.124,-0.113 -0.226,-0.197 -0.305,-0.25c-0.079,-0.054 -0.176,-0.091 -0.292,-0.111c-0.115,-0.021 -0.252,-0.009 -0.411,0.033c-0.163,0.044 -0.268,0.102 -0.382,0.193c-0.114,0.091 -0.202,0.202 -0.264,0.334c-0.063,0.132 -0.098,0.282 -0.104,0.451c-0.007,0.168 0.015,0.347 0.066,0.536c0.109,0.41 0.288,0.7 0.535,0.871c0.016,0.01 0.032,0.02 0.047,0.03c0.238,0.145 0.48,0.184 0.796,0.099c0.164,-0.044 0.245,-0.089 0.377,-0.17c0.132,-0.081 0.262,-0.182 0.388,-0.301l-0.152,-0.567l-0.481,0.129c-0.132,0.035 -0.237,0.042 -0.315,0.021c-0.078,-0.022 -0.13,-0.08 -0.155,-0.176c-0.021,-0.078 -0.01,-0.15 0.032,-0.215c0.043,-0.066 0.113,-0.112 0.21,-0.138l0.803,-0.216c0.099,-0.026 0.184,-0.04 0.257,-0.04c0.073,-0.001 0.139,0.023 0.197,0.072c0.058,0.049 0.104,0.134 0.136,0.255Z" style="fill:#fff;fill-rule:nonzero;"/></g></g><defs><linearGradient id="_Linear1" x1="0" y1="0" x2="1" y2="0" gradientUnits="userSpaceOnUse" gradientTransform="matrix(-14.0763,77.6879,-77.6879,-14.0763,-26039.6,-4763.09)"><stop offset="0" style="stop-color:#f00;stop-opacity:1"/><stop offset="1" style="stop-color:#900;stop-opacity:1"/></linearGradient><linearGradient id="_Linear2" x1="0" y1="0" x2="1" y2="0" gradientUnits="userSpaceOnUse" gradientTransform="matrix(-32.8152,-62.8711,-62.8711,32.8152,-21015,11166.8)"><stop offset="0" style="stop-color:#f00;stop-opacity:1"/><stop offset="1" style="stop-color:#900;stop-opacity:1"/></linearGradient><linearGradient id="_Linear3" x1="0" y1="0" x2="1" y2="0" gradientUnits="userSpaceOnUse" gradientTransform="matrix(39.4064,67.7423,67.7423,-39.4064,-19402.6,11412.9)"><stop offset="0" style="stop-color:#900;stop-opacity:0.65"/><stop offset="1" style="stop-color:#fe0000;stop-opacity:0.65"/></linearGradient><linearGradient id="_Linear4" x1="0" y1="0" x2="1" y2="0" gradientUnits="userSpaceOnUse" gradientTransform="matrix(-14.0763,77.6879,-77.6879,-14.0763,-22260.6,-4078.37)"><stop offset="0" style="stop-color:#f00;stop-opacity:0.65"/><stop offset="1" style="stop-color:#900;stop-opacity:0.65"/></linearGradient><radialGradient id="_Radial6" cx="0" cy="0" r="1" gradientUnits="userSpaceOnUse" gradientTransform="matrix(20.0928,11.6006,-3.84888e-15,23.2012,819.43,49.6852)"><stop offset="0" style="stop-color:#7882ff;stop-opacity:1"/><stop offset="0.55" style="stop-color:#959dff;stop-opacity:0.79"/><stop offset="1" style="stop-color:#fff;stop-opacity:0"/></radialGradient><radialGradient id="_Radial7" cx="0" cy="0" r="1" gradientUnits="userSpaceOnUse" gradientTransform="matrix(20.0928,11.6006,-3.84888e-15,23.2012,799.337,14.8834)"><stop offset="0" style="stop-color:#00ffd6;stop-opacity:1"/><stop offset="0.55" style="stop-color:#36ffdf;stop-opacity:0.79"/><stop offset="1" style="stop-color:#fff;stop-opacity:0"/></radialGradient></defs></svg>