<?xml version="1.0" encoding="UTF-8" standalone="no"?><!DOCTYPE svg PUBLIC "-//W3C//DTD SVG 1.1//EN" "http://www.w3.org/Graphics/SVG/1.1/DTD/svg11.dtd"><svg width="100%" height="100%" viewBox="0 0 101 101" version="1.1" xmlns="http://www.w3.org/2000/svg" xmlns:xlink="http://www.w3.org/1999/xlink" xml:space="preserve" xmlns:serif="http://www.serif.com/" style="fill-rule:evenodd;clip-rule:evenodd;stroke-linecap:round;stroke-linejoin:round;stroke-miterlimit:1.5;"><path d="M17.656,17.656c17.887,-17.888 46.932,-17.888 64.82,-0c17.887,17.887 17.887,46.932 -0,64.82c-17.888,17.887 -46.933,17.887 -64.82,-0c-17.888,-17.888 -17.888,-46.933 -0,-64.82Z" style="fill:#00cdff;fill-opacity:0.6;stroke:#00cdff;stroke-width:8.48px;"/><path d="M26.514,26.514c10.557,-10.558 26.808,-11.449 33.6,-4.658c6.791,6.792 -11.528,5.616 -22.085,16.173c-10.557,10.557 -9.381,28.876 -16.173,22.085c-6.791,-6.792 -5.9,-23.043 4.658,-33.6Z" style="fill:#fff;fill-opacity:0.75;"/><path d="M72.299,72.299c-5.503,5.502 -14.461,5.479 -18.059,1.882c-3.597,-3.598 6.456,-2.48 11.959,-7.982c5.502,-5.503 4.384,-15.556 7.982,-11.959c3.597,3.598 3.62,12.556 -1.882,18.059Z" style="fill:#fff;fill-opacity:0.75;"/></svg>