<?xml version="1.0" encoding="UTF-8" standalone="no"?><!DOCTYPE svg PUBLIC "-//W3C//DTD SVG 1.1//EN" "http://www.w3.org/Graphics/SVG/1.1/DTD/svg11.dtd"><svg width="100%" height="100%" viewBox="0 0 234 231" version="1.1" xmlns="http://www.w3.org/2000/svg" xmlns:xlink="http://www.w3.org/1999/xlink" xml:space="preserve" xmlns:serif="http://www.serif.com/" style="fill-rule:evenodd;clip-rule:evenodd;stroke-linejoin:round;stroke-miterlimit:10;"><g id="pwinter-logo"><path id="printer-body" serif:id="printer body" d="M23.045,29.82l187.306,-0c12.728,-0 23.044,10.316 23.044,23.044l0,70.609c0,12.724 -10.316,23.044 -23.044,23.044l-187.306,0c-12.725,0 -23.045,-10.32 -23.045,-23.044l0,-70.609c0,-12.728 10.32,-23.044 23.045,-23.044Z" style="fill:url(#_Linear1);fill-rule:nonzero;"/><path d="M23.045,29.82l187.306,-0c12.728,-0 23.044,10.316 23.044,23.044l0,70.609c0,12.724 -10.316,23.044 -23.044,23.044l-187.306,0c-12.725,0 -23.045,-10.32 -23.045,-23.044l0,-70.609c0,-12.728 10.32,-23.044 23.045,-23.044Zm-0,19.203l187.306,0c2.121,0 3.84,1.72 3.84,3.841l0,70.609c0,2.12 -1.719,3.84 -3.84,3.84l-187.306,0c-2.121,0 -3.841,-1.72 -3.841,-3.84c-0,-0 -0,-70.609 -0,-70.609c-0,-2.121 1.72,-3.841 3.841,-3.841Z" style="fill:#3d3d3d;"/><path id="sheet-out" serif:id="sheet out" d="M46.258,224.316l0,-132.023l140.879,0l0,132.023l-140.879,-0Z" style="fill:#fff;stroke:#666;stroke-width:11.52px;"/><path id="A" d="M90.857,158.5l14.399,5.696l-0,16.443l21.842,-7.805l24.677,9.759l-74.211,27.95l0,-20.614l13.293,-4.774l-0,-26.655Z" style="fill:#3d3d3d;fill-rule:nonzero;stroke:#3d3d3d;stroke-width:2.88px;"/><path id="W" d="M81.616,140.917l74.211,29.924l0,-19.838l-47.959,-20.467l47.959,-14.557l0,-8.361l-31.997,0l0.791,0.261l-43.005,13.466l0,19.572" style="fill:url(#_Linear2);fill-rule:nonzero;stroke:url(#_Linear3);stroke-width:3.07px;stroke-miterlimit:2;"/><rect id="printer-slot-out" serif:id="printer slot out" x="38.895" y="92.386" width="155.593" height="15.232" style="fill:#5e5e5e;stroke:#3d3d3d;stroke-width:11.52px;"/><path id="sheet-in" serif:id="sheet in" d="M46.135,29.82l0,-24.059l140.879,0l0,24.059" style="fill:#fff;stroke:#666;stroke-width:11.52px;"/><ellipse id="printer-led" serif:id="printer led" cx="35.122" cy="59.463" rx="3.27" ry="3.268" style="fill:#00c800;stroke:#64ff00;stroke-width:11.22px;"/></g><defs><linearGradient id="_Linear1" x1="0" y1="0" x2="1" y2="0" gradientUnits="userSpaceOnUse" gradientTransform="matrix(7.11086e-15,116.129,-58.0646,3.55543e-15,153.63,29.8196)"><stop offset="0" style="stop-color:#c4c4c4;stop-opacity:1"/><stop offset="0.25" style="stop-color:#ececec;stop-opacity:1"/><stop offset="1" style="stop-color:#797979;stop-opacity:1"/></linearGradient><linearGradient id="_Linear2" x1="0" y1="0" x2="1" y2="0" gradientUnits="userSpaceOnUse" gradientTransform="matrix(72.9744,0,0,72.9744,82.5763,126.745)"><stop offset="0" style="stop-color:#5a0fc8;stop-opacity:1"/><stop offset="1" style="stop-color:#3dffdc;stop-opacity:1"/></linearGradient><linearGradient id="_Linear3" x1="0" y1="0" x2="1" y2="0" gradientUnits="userSpaceOnUse" gradientTransform="matrix(74.2111,0,0,63.2227,81.6161,139.229)"><stop offset="0" style="stop-color:#5a0fc8;stop-opacity:1"/><stop offset="1" style="stop-color:#3dffdc;stop-opacity:1"/></linearGradient></defs></svg>