<?xml version="1.0" encoding="UTF-8" standalone="no"?><!DOCTYPE svg PUBLIC "-//W3C//DTD SVG 1.1//EN" "http://www.w3.org/Graphics/SVG/1.1/DTD/svg11.dtd"><svg width="100%" height="100%" viewBox="0 0 80 79" version="1.1" xmlns="http://www.w3.org/2000/svg" xmlns:xlink="http://www.w3.org/1999/xlink" xml:space="preserve" xmlns:serif="http://www.serif.com/" style="fill-rule:evenodd;clip-rule:evenodd;stroke-linejoin:round;stroke-miterlimit:2;"><g><path d="M71.306,58.799c-1.053,0.551 -2.139,1.036 -3.252,1.454c-3.543,1.325 -7.296,2.001 -11.079,1.993c-14.602,0 -27.322,-10.044 -27.322,-22.934c0.038,-3.516 1.982,-6.747 5.07,-8.428c-13.208,0.555 -16.602,14.319 -16.602,22.382c-0,22.799 21.012,25.11 25.539,25.11c2.441,0 6.122,-0.709 8.332,-1.407l0.404,-0.136c8.501,-2.938 15.752,-8.687 20.552,-16.293c0.126,-0.198 0.192,-0.428 0.192,-0.662c0,-0.677 -0.557,-1.234 -1.234,-1.234c-0.21,-0 -0.416,0.053 -0.6,0.155Z" style="fill:url(#_Linear1);fill-rule:nonzero;"/><path d="M71.306,58.799c-1.053,0.551 -2.139,1.036 -3.252,1.454c-3.543,1.325 -7.296,2.001 -11.079,1.993c-14.602,0 -27.322,-10.044 -27.322,-22.934c0.038,-3.516 1.982,-6.747 5.07,-8.428c-13.208,0.555 -16.602,14.319 -16.602,22.382c-0,22.799 21.012,25.11 25.539,25.11c2.441,0 6.122,-0.709 8.332,-1.407l0.404,-0.136c8.501,-2.938 15.752,-8.687 20.552,-16.293c0.126,-0.198 0.192,-0.428 0.192,-0.662c0,-0.677 -0.557,-1.234 -1.234,-1.234c-0.21,-0 -0.416,0.053 -0.6,0.155Z" style="fill:url(#_Radial2);fill-rule:nonzero;"/><path d="M32.627,74.5c-2.752,-1.708 -5.137,-3.947 -7.017,-6.585c-3.112,-4.263 -4.789,-9.407 -4.789,-14.686c-0,-9.473 5.404,-18.159 13.902,-22.345c0.963,-0.454 2.607,-1.275 4.795,-1.234c3.123,0.022 6.06,1.509 7.928,4.011c1.246,1.664 1.933,3.68 1.963,5.759c-0,-0.065 7.548,-24.564 -24.688,-24.564c-13.547,-0 -24.687,12.856 -24.687,24.135c-0.053,5.966 1.223,11.87 3.737,17.281c8.463,18.057 29.34,27.016 48.258,20.709c-6.505,2.051 -13.592,1.148 -19.374,-2.468l-0.028,-0.013Z" style="fill:url(#_Linear3);fill-rule:nonzero;"/><path d="M32.627,74.5c-2.752,-1.708 -5.137,-3.947 -7.017,-6.585c-3.112,-4.263 -4.789,-9.407 -4.789,-14.686c-0,-9.473 5.404,-18.159 13.902,-22.345c0.963,-0.454 2.607,-1.275 4.795,-1.234c3.123,0.022 6.06,1.509 7.928,4.011c1.246,1.664 1.933,3.68 1.963,5.759c-0,-0.065 7.548,-24.564 -24.688,-24.564c-13.547,-0 -24.687,12.856 -24.687,24.135c-0.053,5.966 1.223,11.87 3.737,17.281c8.463,18.057 29.34,27.016 48.258,20.709c-6.505,2.051 -13.592,1.148 -19.374,-2.468l-0.028,-0.013Z" style="fill:url(#_Radial4);fill-rule:nonzero;"/><path d="M47.008,45.937c-0.25,0.324 -1.018,0.772 -1.018,1.747c-0,0.805 0.524,1.58 1.456,2.231c4.438,3.086 12.804,2.678 12.825,2.678c3.288,-0.007 6.514,-0.897 9.341,-2.576c5.797,-3.385 9.377,-9.607 9.391,-16.319c0.08,-6.915 -2.469,-11.513 -3.5,-13.55c-6.539,-12.791 -20.654,-20.148 -36.003,-20.148c-21.461,-0.002 -39.198,17.486 -39.5,38.944c0.148,-11.276 11.356,-20.382 24.687,-20.382c1.08,-0 7.24,0.105 12.961,3.107c5.043,2.648 7.684,5.845 9.52,9.014c1.907,3.293 2.247,7.453 2.247,9.11c-0,1.657 -0.846,4.114 -2.407,6.144Z" style="fill:url(#_Radial5);fill-rule:nonzero;"/><path d="M47.008,45.937c-0.25,0.324 -1.018,0.772 -1.018,1.747c-0,0.805 0.524,1.58 1.456,2.231c4.438,3.086 12.804,2.678 12.825,2.678c3.288,-0.007 6.514,-0.897 9.341,-2.576c5.797,-3.385 9.377,-9.607 9.391,-16.319c0.08,-6.915 -2.469,-11.513 -3.5,-13.55c-6.539,-12.791 -20.654,-20.148 -36.003,-20.148c-21.461,-0.002 -39.198,17.486 -39.5,38.944c0.148,-11.276 11.356,-20.382 24.687,-20.382c1.08,-0 7.24,0.105 12.961,3.107c5.043,2.648 7.684,5.845 9.52,9.014c1.907,3.293 2.247,7.453 2.247,9.11c-0,1.657 -0.846,4.114 -2.407,6.144Z" style="fill:url(#_Radial6);fill-rule:nonzero;"/></g><defs><linearGradient id="_Linear1" x1="0" y1="0" x2="1" y2="0" gradientUnits="userSpaceOnUse" gradientTransform="matrix(55.0344,0,0,55.0344,18.1206,54.6363)"><stop offset="0" style="stop-color:#0c59a4;stop-opacity:1"/><stop offset="1" style="stop-color:#114a8b;stop-opacity:1"/></linearGradient><radialGradient id="_Radial2" cx="0" cy="0" r="1" gradientUnits="userSpaceOnUse" gradientTransform="matrix(29.4336,0,0,-27.9619,48.5169,55.07)"><stop offset="0" style="stop-color:#000;stop-opacity:0"/><stop offset="0.72" style="stop-color:#000;stop-opacity:0"/><stop offset="0.95" style="stop-color:#000;stop-opacity:0.19"/><stop offset="1" style="stop-color:#000;stop-opacity:0.35"/></radialGradient><linearGradient id="_Linear3" x1="0" y1="0" x2="1" y2="0" gradientUnits="userSpaceOnUse" gradientTransform="matrix(-34.3741,37.4415,-37.4415,-34.3741,47.1344,30.7636)"><stop offset="0" style="stop-color:#1b9de2;stop-opacity:1"/><stop offset="0.16" style="stop-color:#1595df;stop-opacity:1"/><stop offset="0.67" style="stop-color:#0680d7;stop-opacity:1"/><stop offset="1" style="stop-color:#0078d4;stop-opacity:1"/></linearGradient><radialGradient id="_Radial4" cx="0" cy="0" r="1" gradientUnits="userSpaceOnUse" gradientTransform="matrix(6.63042,-43.7608,-35.3622,-5.30434,21.7849,61.4125)"><stop offset="0" style="stop-color:#000;stop-opacity:0"/><stop offset="0.76" style="stop-color:#000;stop-opacity:0"/><stop offset="0.95" style="stop-color:#000;stop-opacity:0.2"/><stop offset="1" style="stop-color:#000;stop-opacity:0.41"/></radialGradient><radialGradient id="_Radial5" cx="0" cy="0" r="1" gradientUnits="userSpaceOnUse" gradientTransform="matrix(-2.49874,62.4684,133.058,4.99747,7.98097,14.6201)"><stop offset="0" style="stop-color:#35c1f1;stop-opacity:1"/><stop offset="0.11" style="stop-color:#34c1ed;stop-opacity:1"/><stop offset="0.23" style="stop-color:#2fc2df;stop-opacity:1"/><stop offset="0.31" style="stop-color:#2bc3d2;stop-opacity:1"/><stop offset="0.67" style="stop-color:#36c752;stop-opacity:1"/><stop offset="1" style="stop-color:#36c752;stop-opacity:1"/></radialGradient><radialGradient id="_Radial6" cx="0" cy="0" r="1" gradientUnits="userSpaceOnUse" gradientTransform="matrix(8.41075,28.8369,23.43,-6.90883,74.0845,23.8869)"><stop offset="0" style="stop-color:#66eb6e;stop-opacity:1"/><stop offset="1" style="stop-color:#66eb6e;stop-opacity:0"/></radialGradient></defs></svg>