<?xml version="1.0" encoding="UTF-8" standalone="no"?><!DOCTYPE svg PUBLIC "-//W3C//DTD SVG 1.1//EN" "http://www.w3.org/Graphics/SVG/1.1/DTD/svg11.dtd"><svg width="100%" height="100%" viewBox="0 0 61 60" version="1.1" xmlns="http://www.w3.org/2000/svg" xmlns:xlink="http://www.w3.org/1999/xlink" xml:space="preserve" xmlns:serif="http://www.serif.com/" style="fill-rule:evenodd;clip-rule:evenodd;stroke-linejoin:round;stroke-miterlimit:2;"><path d="M30.396,0c-16.786,0 -30.396,13.61 -30.396,30.401c0,13.43 8.709,24.824 20.789,28.845c1.521,0.278 2.075,-0.66 2.075,-1.467c0,-0.72 -0.026,-2.633 -0.041,-5.169c-8.455,1.836 -10.24,-4.076 -10.24,-4.076c-1.382,-3.51 -3.375,-4.445 -3.375,-4.445c-2.761,-1.887 0.209,-1.849 0.209,-1.849c3.051,0.216 4.656,3.133 4.656,3.133c2.711,4.645 7.115,3.303 8.847,2.527c0.276,-1.965 1.06,-3.305 1.93,-4.065c-6.75,-0.767 -13.847,-3.376 -13.847,-15.024c0,-3.319 1.185,-6.032 3.129,-8.158c-0.313,-0.768 -1.356,-3.859 0.297,-8.045c0,0 2.553,-0.817 8.361,3.117c2.424,-0.674 5.025,-1.012 7.61,-1.023c2.581,0.011 5.182,0.349 7.61,1.023c5.804,-3.934 8.351,-3.117 8.351,-3.117c1.66,4.186 0.616,7.277 0.303,8.045c1.948,2.126 3.126,4.839 3.126,8.158c0,11.678 -7.109,14.248 -13.881,15c1.092,0.939 2.064,2.794 2.064,5.63c0,4.063 -0.037,7.342 -0.037,8.338c0,0.814 0.546,1.76 2.09,1.463c12.07,-4.029 20.772,-15.414 20.772,-28.841c0,-16.791 -13.612,-30.401 -30.402,-30.401" style="fill:#9942a6;"/></svg>