<?xml version="1.0" encoding="UTF-8" standalone="no"?><!DOCTYPE svg PUBLIC "-//W3C//DTD SVG 1.1//EN" "http://www.w3.org/Graphics/SVG/1.1/DTD/svg11.dtd"><svg width="100%" height="100%" viewBox="0 0 61 61" version="1.1" xmlns="http://www.w3.org/2000/svg" xmlns:xlink="http://www.w3.org/1999/xlink" xml:space="preserve" xmlns:serif="http://www.serif.com/" style="fill-rule:evenodd;clip-rule:evenodd;stroke-linejoin:round;stroke-miterlimit:2;"><path d="M60.884,30.442c0,16.812 -13.63,30.442 -30.442,30.442c-16.812,0 -30.442,-13.63 -30.442,-30.442c0,-16.812 13.63,-30.442 30.442,-30.442c16.812,0 30.442,13.63 30.442,30.442Z" style="fill:#ff4500;"/><path d="M48.2,30.115c0,-2.159 -1.763,-3.914 -3.932,-3.914c-1.058,-0 -2.017,0.423 -2.725,1.103c-2.679,-1.763 -6.304,-2.884 -10.314,-3.029l2.194,-6.91l5.944,1.392l-0.008,0.087c0,1.765 1.444,3.201 3.217,3.201c1.773,0 3.214,-1.436 3.214,-3.201c-0,-1.766 -1.441,-3.202 -3.214,-3.202c-1.362,0 -2.522,0.85 -2.991,2.04l-6.406,-1.502c-0.279,-0.069 -0.565,0.094 -0.652,0.368l-2.448,7.707c-4.201,0.05 -8.003,1.182 -10.802,2.996c-0.702,-0.647 -1.633,-1.053 -2.663,-1.053c-2.167,0.003 -3.93,1.758 -3.93,3.917c0,1.436 0.789,2.679 1.949,3.361c-0.077,0.416 -0.127,0.84 -0.127,1.269c-0,5.786 7.116,10.495 15.863,10.495c8.747,-0 15.862,-4.709 15.862,-10.495c0,-0.406 -0.043,-0.805 -0.111,-1.198c1.233,-0.662 2.08,-1.943 2.08,-3.432Zm-12.08,8.82c0.215,0.214 0.215,0.561 -0,0.777c-1.18,1.172 -3.029,1.743 -5.66,1.743l-0.02,-0.006l-0.021,0.006c-2.628,-0 -4.48,-0.571 -5.659,-1.746c-0.216,-0.213 -0.216,-0.56 -0,-0.774c0.213,-0.213 0.563,-0.213 0.778,0c0.962,0.957 2.558,1.424 4.881,1.424l0.021,0.005l0.02,-0.005c2.321,-0 3.917,-0.467 4.881,-1.424c0.215,-0.213 0.565,-0.213 0.779,0Zm-0.279,-8.462c-1.292,-0 -2.339,1.045 -2.339,2.331c-0,1.284 1.05,2.329 2.339,2.329c1.288,-0 2.338,-1.045 2.338,-2.329c0,-1.286 -1.047,-2.331 -2.338,-2.331Zm-8.448,2.328c-0,-1.286 -1.05,-2.331 -2.339,-2.331c-1.291,0 -2.342,1.045 -2.342,2.331c0,1.284 1.051,2.329 2.342,2.329c1.289,0.003 2.339,-1.042 2.339,-2.329Z" style="fill:#fff;"/></svg>