<?xml version="1.0" encoding="UTF-8" standalone="no"?><!DOCTYPE svg PUBLIC "-//W3C//DTD SVG 1.1//EN" "http://www.w3.org/Graphics/SVG/1.1/DTD/svg11.dtd"><svg width="100%" height="100%" viewBox="0 0 78 79" version="1.1" xmlns="http://www.w3.org/2000/svg" xmlns:xlink="http://www.w3.org/1999/xlink" xml:space="preserve" xmlns:serif="http://www.serif.com/" style="fill-rule:evenodd;clip-rule:evenodd;stroke-linejoin:round;stroke-miterlimit:10;"><path d="M22.704,3l32.387,0c10.882,0 19.704,8.822 19.704,19.704l-0,32.613c-0,10.882 -8.822,19.703 -19.704,19.703l-32.387,-0c-10.882,-0 -19.704,-8.821 -19.704,-19.703l-0,-32.613c-0,-10.882 8.822,-19.704 19.704,-19.704Z" style="fill:none;fill-rule:nonzero;stroke:#dd2d71;stroke-width:6px;"/><circle cx="38.785" cy="39.01" r="16.986" style="fill:none;stroke:#dd2d71;stroke-width:6px;"/><path d="M60.225,12.89c2.668,-0 4.831,2.163 4.831,4.832c-0,2.668 -2.163,4.831 -4.831,4.831c-2.669,0 -4.832,-2.163 -4.832,-4.831c-0,-2.669 2.163,-4.832 4.832,-4.832" style="fill:#dd2d71;fill-rule:nonzero;"/></svg>