<?xml version="1.0" encoding="UTF-8" standalone="no"?><!DOCTYPE svg PUBLIC "-//W3C//DTD SVG 1.1//EN" "http://www.w3.org/Graphics/SVG/1.1/DTD/svg11.dtd"><svg width="100%" height="100%" viewBox="0 0 68 56" version="1.1" xmlns="http://www.w3.org/2000/svg" xmlns:xlink="http://www.w3.org/1999/xlink" xml:space="preserve" xmlns:serif="http://www.serif.com/" style="fill-rule:evenodd;clip-rule:evenodd;stroke-linejoin:round;stroke-miterlimit:2;"><path d="M8.618,21.235c-0,0 -10.323,-6.686 -4.228,-18.68c0,0 9.537,13.665 28.905,14.747c0,0 -2.851,-8.947 6.39,-15.239c0,0 8.554,-5.997 17.501,2.458c0,0 6.193,-1.622 8.848,-3.539c-0,0 -0.246,3.342 -6.096,7.767c-0,0 3.835,-0.418 8.013,-2.237c-0,0 -1.598,3.097 -6.956,7.251c0,0 -0.01,0.148 -0.035,0.427c0.176,3.852 0.042,20.347 -14.021,32.254c-3.906,3.725 -8.884,6.648 -15.225,7.919c-16.13,5.057 -31.714,-5.038 -31.714,-5.038c-0,0 11.011,1.868 20.253,-5.801c-0,0 -8.554,0.197 -12.978,-9.832c-0,0 4.031,0.689 6.292,-0.295c-0,0 -10.618,-2.064 -11.208,-13.862c-0,0 2.784,1.924 6.259,1.7" style="fill:#1da1f2;fill-rule:nonzero;"/></svg>