<svg xmlns="http://www.w3.org/2000/svg" baseProfile="full" width="128.066" height="128.066" viewBox="0 0 128.07 128.07"><path fill="#FF5095" fill-rule="evenodd" d="M128.066 64.033c0 35.378-28.655 64.033-64.033 64.033S0 99.411 0 64.033 28.655 0 64.033 0s64.033 28.655 64.033 64.033z"/><path fill="#3D3D3D" d="M88.205 90.927c.48.48.48 1.2 0 1.68l-3.922 3.923c-.48.48-1.2.48-1.68 0L70.757 84.684h-3.602v6.963c0 .56-.48 1.121-1.12 1.121h-4.003c-.56 0-1.12-.56-1.12-1.12v-6.964H57.31L45.463 96.53c-.48.48-1.2.48-1.68 0l-3.922-3.922c-.48-.48-.48-1.201 0-1.681l6.163-6.243H29.695c-.64 0-1.2-.48-1.2-1.12V40.42h-1.28c-.721 0-1.202-.48-1.202-1.2v-6.564c0-.64.48-1.12 1.201-1.12h73.638c.72 0 1.201.48 1.201 1.12v6.563c0 .72-.481 1.2-1.201 1.2h-1.28v43.143c0 .64-.56 1.12-1.201 1.12H82.042l6.163 6.244z"/><path fill="#6C6C6C" d="M83.483 94.049l2.241-2.322-7.044-7.043h-4.562l9.365 9.365zM42.342 91.727l2.321 2.322 9.285-9.365h-4.563l-7.043 7.043zM63.233 84.684h1.601v5.763h-1.601z"/><path fill="#FFF" d="M30.896 40.661H97.17v41.701H30.896z"/><path fill="#3C78C3" d="M57.39 44.663c7.684 0 14.007 6.243 14.007 14.007 0 .64-.56 1.2-1.2 1.2H57.39c-.64 0-1.121-.56-1.121-1.2V45.864c0-.72.48-1.2 1.12-1.2z"/><path fill="#230FD2" d="M53.948 48.105c.64 0 1.2.56 1.2 1.2v11.607h11.606c.64 0 1.201.56 1.201 1.2 0 7.684-6.323 14.007-14.007 14.007-7.684 0-14.007-6.323-14.007-14.007 0-7.684 6.323-14.007 14.007-14.007z"/><path fill="#3D3D3D" d="M75.479 47.945h14.648v2.321H75.479zM75.479 55.068h14.648v2.321H75.479zM75.479 62.112h14.648v2.401H75.479zM75.479 69.236h14.648v2.321H75.479z"/><path fill="#6C6C6C" d="M28.335 33.857h71.397v4.242H28.335z"/></svg>