<?xml version="1.0" encoding="UTF-8" standalone="no"?><!DOCTYPE svg PUBLIC "-//W3C//DTD SVG 1.1//EN" "http://www.w3.org/Graphics/SVG/1.1/DTD/svg11.dtd"><svg width="100%" height="100%" viewBox="0 0 129 129" version="1.1" xmlns="http://www.w3.org/2000/svg" xmlns:xlink="http://www.w3.org/1999/xlink" xml:space="preserve" xmlns:serif="http://www.serif.com/" style="fill-rule:evenodd;clip-rule:evenodd;stroke-linejoin:round;stroke-miterlimit:2;"><path d="M128.066,64.035c0,35.377 -28.654,64.031 -64.031,64.031c-35.377,0 -64.031,-28.654 -64.031,-64.031c-0,-35.377 28.654,-64.031 64.031,-64.031c35.377,-0 64.031,28.654 64.031,64.031Z" style="fill:#134e8b;"/><clipPath id="_clip1"><path d="M128.066,64.035c0,35.377 -28.654,64.031 -64.031,64.031c-35.377,0 -64.031,-28.654 -64.031,-64.031c-0,-35.377 28.654,-64.031 64.031,-64.031c35.377,-0 64.031,28.654 64.031,64.031Z"/></clipPath><g clip-path="url(#_clip1)"><path d="M183.481,31.844c-0,37.99 -30.843,68.832 -68.833,68.832c-37.99,0 -68.832,-30.842 -68.832,-68.832c-0,-37.99 30.842,-68.833 68.832,-68.833c37.99,0 68.833,30.843 68.833,68.833Z" style="fill:url(#_Radial2);"/><path d="M147.278,61.609c0,52.642 -42.738,95.38 -95.379,95.38c-52.642,-0 -95.38,-42.738 -95.38,-95.38c0,-52.641 42.738,-95.379 95.38,-95.379c52.641,-0 95.379,42.738 95.379,95.379Z" style="fill:url(#_Radial3);"/></g><g><path d="M95.861,83.349c-1.054,0.551 -2.141,1.037 -3.255,1.454c-3.545,1.327 -7.301,2.003 -11.086,1.995c-14.612,0 -27.341,-10.051 -27.341,-22.95c0.038,-3.518 1.983,-6.752 5.073,-8.434c-13.217,0.556 -16.614,14.329 -16.614,22.398c0,22.815 21.027,25.128 25.557,25.128c2.443,-0 6.127,-0.711 8.338,-1.409l0.405,-0.135c8.506,-2.941 15.762,-8.694 20.566,-16.305c0.126,-0.198 0.192,-0.428 0.192,-0.662c0,-0.678 -0.557,-1.236 -1.235,-1.236c-0.21,0 -0.416,0.054 -0.6,0.156Z" style="fill:#fff;fill-rule:nonzero;stroke:#0a6cba;stroke-width:1.99px;"/><path d="M57.155,99.061c-2.754,-1.71 -5.141,-3.95 -7.022,-6.59c-3.114,-4.266 -4.793,-9.414 -4.793,-14.696c0,-9.479 5.408,-18.172 13.912,-22.361c0.964,-0.454 2.61,-1.275 4.799,-1.235c3.125,0.023 6.064,1.51 7.933,4.015c1.247,1.664 1.935,3.682 1.964,5.762c0,-0.065 7.554,-24.581 -24.704,-24.581c-13.557,-0 -24.705,12.865 -24.705,24.152c-0.053,5.97 1.224,11.878 3.74,17.293c8.469,18.069 29.36,27.034 48.291,20.724c-6.509,2.052 -13.601,1.148 -19.387,-2.471l-0.028,-0.012Z" style="fill:#fff;fill-rule:nonzero;stroke:#0a6cba;stroke-width:1.99px;"/><path d="M71.546,70.478c-0.25,0.324 -1.019,0.772 -1.019,1.748c-0,0.806 0.525,1.581 1.457,2.232c4.441,3.088 12.813,2.681 12.834,2.681c3.29,-0.008 6.519,-0.899 9.348,-2.579c5.8,-3.387 9.383,-9.613 9.397,-16.329c0.08,-6.921 -2.471,-11.522 -3.502,-13.56c-6.544,-12.8 -20.668,-20.162 -36.028,-20.162c-21.476,-0.002 -39.226,17.498 -39.528,38.971c0.149,-11.284 11.364,-20.396 24.705,-20.396c1.081,-0 7.244,0.105 12.97,3.109c5.046,2.65 7.689,5.849 9.526,9.021c1.909,3.294 2.248,7.457 2.248,9.115c0,1.659 -0.846,4.117 -2.408,6.149Z" style="fill:#fff;fill-rule:nonzero;stroke:url(#_Linear4);stroke-width:1.99px;"/></g><defs><radialGradient id="_Radial2" cx="0" cy="0" r="1" gradientUnits="userSpaceOnUse" gradientTransform="matrix(4.21861e-15,68.8951,-68.8951,4.21861e-15,114.648,31.7813)"><stop offset="0" style="stop-color:#55de6f;stop-opacity:1"/><stop offset="1" style="stop-color:#55de6f;stop-opacity:0"/></radialGradient><radialGradient id="_Radial3" cx="0" cy="0" r="1" gradientUnits="userSpaceOnUse" gradientTransform="matrix(1.16607e-14,190.434,-190.434,1.16607e-14,-43.3183,67.2198)"><stop offset="0" style="stop-color:#057ed6;stop-opacity:1"/><stop offset="1" style="stop-color:#047dd6;stop-opacity:0"/></radialGradient><linearGradient id="_Linear4" x1="0" y1="0" x2="1" y2="0" gradientUnits="userSpaceOnUse" gradientTransform="matrix(49.1955,-27.1896,18.1062,32.7605,54.3692,66.5644)"><stop offset="0" style="stop-color:#0a6cba;stop-opacity:1"/><stop offset="1" style="stop-color:#35ab8d;stop-opacity:1"/></linearGradient></defs></svg>