<svg xmlns="http://www.w3.org/2000/svg" baseProfile="full" width="195.058" height="195.058" viewBox="0 0 195.06 195.06"><path fill="#03A87C" fill-opacity=".996" d="M195.058 0H0v195.058h195.058V0zM46.564 123.131V65.206c.16-1.6-.48-3.2-1.68-4.24l-12.24-14.722v-2.24h38.003l29.362 64.406 25.762-64.406h36.244v2.24l-10.481 10.001c-.88.64-1.36 1.84-1.12 2.96v73.607c-.24 1.12.24 2.32 1.12 2.96l10.241 10.001v2.24H110.41v-2.24l10.561-10.241c1.04-1.04 1.04-1.36 1.04-2.96V73.046l-29.443 74.727h-3.92L54.405 73.046v50.085c-.32 2.08.4 4.24 1.84 5.761l13.761 16.641v2.24H31.043v-2.24l13.761-16.641c1.44-1.521 2.08-3.681 1.76-5.761z"/></svg>