<svg xmlns="http://www.w3.org/2000/svg" baseProfile="full" width="252.048" height="252.048" viewBox="0 0 252.05 252.05"><path fill="#7882FF" d="M249.601 88.385c-3.046-23.279-11.314-44.6-25.891-60.047-15.447-14.577-36.768-22.845-60.047-25.89C141.254-.598 126.024.054 126.024.054s-15.229-.652-37.639 2.394c-23.279 3.045-44.6 11.313-60.047 25.89C13.76 43.785 5.493 65.106 2.448 88.385-.598 110.795.054 126.024.054 126.024s-.652 15.23 2.394 37.639c3.045 23.279 11.313 44.6 25.89 60.047 15.447 14.577 36.768 22.845 60.047 25.89 22.41 3.046 37.639 2.394 37.639 2.394s15.23.652 37.639-2.394c23.279-3.045 44.6-11.313 60.047-25.89 14.577-15.447 22.845-36.768 25.891-60.047 3.045-22.409 2.393-37.639 2.393-37.639s.652-15.229-2.393-37.639z"/><path fill="#FFF" d="M190.423 107.314c10.008 35.898-10.878 72.884-46.776 82.891-35.681 10.008-72.884-11.095-82.675-46.776-10.007-35.898 10.879-72.884 46.777-82.892 35.68-9.79 72.884 11.096 82.674 46.777z"/><path fill="#4D5CC1" d="M170.625 172.583c-16.97 0-37.639-4.352-58.308-12.184-41.119-15.664-77.888-44.383-68.532-68.968 2.61-6.962 11.096-18.275 38.726-18.275 16.97 0 37.856 4.351 58.307 12.184 41.12 15.447 77.888 44.165 68.533 68.967-2.611 6.745-11.096 18.276-38.726 18.276zM82.511 94.477c-12.618 0-18.275 3.046-18.71 4.57-1.74 4.568 14.794 25.889 56.131 41.554 18.058 6.744 36.551 10.66 50.693 10.66 12.836 0 18.275-3.045 18.928-4.568 1.74-4.569-15.012-25.89-56.132-41.555-18.058-6.745-36.55-10.66-50.91-10.66z"/><path fill="#FFF" d="M63.8 99.264l125.535 47.646c4.352-12.401 5.004-26.107 1.088-39.596-9.79-35.681-46.994-56.567-82.674-46.777-20.669 5.875-36.334 20.451-43.948 38.727z"/></svg>