<?xml version="1.0" encoding="UTF-8" standalone="no"?><!DOCTYPE svg PUBLIC "-//W3C//DTD SVG 1.1//EN" "http://www.w3.org/Graphics/SVG/1.1/DTD/svg11.dtd"><svg width="100%" height="100%" viewBox="0 0 247 132" version="1.1" xmlns="http://www.w3.org/2000/svg" xmlns:xlink="http://www.w3.org/1999/xlink" xml:space="preserve" xmlns:serif="http://www.serif.com/" style="fill-rule:evenodd;clip-rule:evenodd;stroke-linejoin:round;stroke-miterlimit:2;"><path d="M5.579,0l52.75,0c32.586,0 58.391,29.826 58.391,65.652c0,35.827 -25.805,65.592 -58.391,65.592c-2.221,0 -4.201,-1.32 -5.101,-3.36l-52.75,-120.023c-1.62,-3.66 1.08,-7.861 5.101,-7.861Zm8.641,11.222l47.709,108.62c24.065,-2.16 43.508,-25.144 43.508,-54.19c0,-30.485 -21.424,-54.43 -47.108,-54.43l-44.109,0Zm164.131,-11.222c2.28,0 4.261,1.32 5.161,3.361l30.173,68.652l27.258,0c3.06,0 5.581,2.521 5.581,5.641l0,48.009c0,3.121 -2.521,5.581 -5.581,5.581l-62.592,0c-32.586,0 -58.331,-29.765 -58.331,-65.592c0,-35.826 25.745,-65.652 58.331,-65.652Zm-3.541,11.462c-24.064,2.101 -43.568,25.145 -43.568,54.19c0,30.486 21.484,54.37 47.109,54.37l44.168,0l-47.709,-108.56Zm60.492,71.774l-16.685,0l16.168,36.786l0.517,0l0,-36.786" style="fill:url(#_Linear1);fill-rule:nonzero;"/><defs><linearGradient id="_Linear1" x1="0" y1="0" x2="1" y2="0" gradientUnits="userSpaceOnUse" gradientTransform="matrix(5.2571e-15,-85.855,45.7074,2.79877e-15,120.02,76.8188)"><stop offset="0" style="stop-color:#ff9d00;stop-opacity:1"/><stop offset="1" style="stop-color:#ffe175;stop-opacity:1"/></linearGradient></defs></svg>