<svg xmlns="http://www.w3.org/2000/svg" baseProfile="full" width="128.066" height="128.066" viewBox="0 0 128.07 128.07"><path fill="#E0E0E0" fill-rule="evenodd" d="M128.066 64.033c0 35.378-28.655 64.033-64.033 64.033S0 99.411 0 64.033C0 28.654 28.655 0 64.033 0s64.033 28.654 64.033 64.033z"/><path fill="#0096FF" d="M64.03 61.29c18.57 0 33.626 15.054 33.626 33.624 0 3.66-14.962 7.113-33.533 7.113-18.57 0-33.718-4.974-33.718-7.113 0-18.57 15.055-33.625 33.626-33.625z"/><path fill="#EA9E55" d="M64.123 26.04c9.592 0 17.53 7.73 17.53 17.322 0 9.41-7.938 17.141-17.53 17.141-9.747 0-17.684-7.73-17.684-17.141 0-9.593 7.937-17.323 17.684-17.323z"/><g fill="#3D3D3D"><path d="M63.991 59.166c-19.363 0-35.126 15.683-35.126 35.126 0 1.12.72 1.6 1.28 2.08.64.48 1.36.88 2.24 1.28 1.84.8 4.401 1.681 7.522 2.401 6.24 1.601 14.723 2.801 24.164 2.801 9.362 0 17.844-.8 24.085-2.161 3.12-.72 5.6-1.52 7.521-2.4.96-.48 1.68-.96 2.32-1.6.64-.64 1.12-1.44 1.12-2.4 0-19.444-15.762-35.127-35.126-35.127zm0 2.96c17.764 0 32.166 14.403 32.166 32.166 0-.08 0 0-.24.24-.32.32-.8.64-1.6 1.04-1.52.72-3.84 1.52-6.801 2.16-5.921 1.28-14.243 2.161-23.445 2.161-9.121 0-17.443-1.28-23.444-2.72-2.96-.72-5.441-1.52-6.961-2.24-.8-.4-1.44-.72-1.68-.961-.08 0-.08 0-.08-.08.16-17.603 14.482-31.766 32.085-31.766z"/><path d="M64.071 23.88c-10.562 0-19.203 8.4-19.203 18.803 0 10.242 8.641 18.643 19.203 18.643 10.402 0 19.044-8.401 19.044-18.643 0-10.402-8.642-18.804-19.044-18.804zm0 2.96c8.802 0 16.083 7.12 16.083 15.843 0 8.561-7.281 15.682-16.083 15.682-8.961 0-16.163-7.12-16.163-15.682 0-8.722 7.202-15.843 16.163-15.843z"/></g><path fill="#4D4D4D" d="M92.744 83.8v-.156a2.825 2.825 0 0 1-2.818 2.819h-2.43a2.825 2.825 0 0 1-2.818-2.819v.156l-1.52-11.882A7.93 7.93 0 0 1 80.8 66.27c0-4.343 3.542-7.911 7.911-7.911 4.37 0 7.912 3.568 7.912 7.911 0 2.211-.907 4.217-2.37 5.659l-1.509 11.87z"/><path fill="#A4A4A4" d="M88.711 60.944a5.302 5.302 0 0 0-5.326 5.326c0 2.973 2.353 5.352 5.326 5.352a5.324 5.324 0 0 0 5.326-5.352 5.319 5.319 0 0 0-5.326-5.326z"/><path fill="#3D3D3D" d="M86.643 62.495c.413 0 .75.336.75.776a.75.75 0 0 1-.75.75.756.756 0 0 1-.776-.75c0-.44.336-.776.776-.776zM85.324 64.719c.44 0 .776.336.776.775 0 .414-.336.75-.776.75-.413 0-.775-.336-.775-.75 0-.44.361-.775.775-.775zM85.945 67.304c.413 0 .775.362.775.776 0 .44-.362.776-.775.776a.778.778 0 0 1-.776-.776c0-.414.362-.776.776-.776zM88.711 66.942c.44 0 .776.362.776.776a.778.778 0 0 1-.776.775c-.414 0-.75-.362-.75-.775 0-.414.336-.776.75-.776zM87.78 69.217c.44 0 .776.336.776.776 0 .413-.336.75-.776.75a.75.75 0 0 1-.75-.75c0-.44.337-.776.75-.776zM88.866 61.822c.44 0 .776.363.776.776 0 .44-.336.776-.776.776a.778.778 0 0 1-.775-.776c0-.413.362-.776.775-.776zM87.806 64.822c.44 0 .776.336.776.775 0 .414-.336.75-.776.75a.75.75 0 0 1-.75-.75c0-.439.337-.775.75-.775zM91.09 62.572a.75.75 0 0 1 .75.75c0 .44-.337.776-.75.776a.762.762 0 0 1-.776-.776c0-.414.336-.75.776-.75zM92.693 64.77c.413 0 .75.336.75.775a.75.75 0 0 1-.75.75.756.756 0 0 1-.776-.75c0-.44.336-.776.776-.776zM90.34 69.087c.44 0 .776.337.776.75 0 .44-.337.775-.776.775a.778.778 0 0 1-.776-.775c0-.413.362-.75.776-.75zM91.84 67.096c.44 0 .775.336.775.776a.778.778 0 0 1-.776.776c-.413 0-.75-.362-.75-.776 0-.44.337-.776.75-.776zM90.237 65.131c.439 0 .775.337.775.75 0 .44-.336.776-.775.776a.757.757 0 0 1-.75-.776.75.75 0 0 1 .75-.75z"/></svg>