<svg xmlns="http://www.w3.org/2000/svg" baseProfile="full" width="128.066" height="128.066" viewBox="0 0 128.07 128.07"><path fill="#0096FF" fill-rule="evenodd" d="M128.066 64.033c0 35.378-28.655 64.033-64.033 64.033S0 99.411 0 64.033C0 28.654 28.655 0 64.033 0s64.033 28.654 64.033 64.033z"/><path fill="#FF3D3D" fill-rule="evenodd" d="M87.074 48.002l10.166-.5-.333-6.166-4.875-3.292-3.458.625-2.167 5.667.667 3.666z"/><path fill="#FFF" fill-rule="evenodd" d="M31.074 100.669l60.504-1.735v-7.817l-5.972-15.14V43.354l2.551-3.684 3.875-1.625.5-10.625-61.75.375.292 72.875z"/><path fill="#FFA800" fill-rule="evenodd" d="M87.074 48.002l-.042 29.5 1.75 2 8.125-.25.75-3.125-1-27.75-9.583-.375z"/><path fill="#FFD7B0" fill-rule="evenodd" d="M87.407 79.877l4.375 9.625 4.25-9.625h-8.625z"/><path fill="#3D3D3D" d="M30.827 26.548H92.87c.724 0 1.293.57 1.293 1.293v9.398c2.53.874 4.369 3.282 4.369 6.113v32.625c0 1.034-.31 2.249-.724 3.722-.414 1.5-.956 3.18-1.551 4.757-.595 1.577-1.215 3.076-1.784 4.24l-.31.596v10.933a1.28 1.28 0 0 1-1.293 1.293H30.827a1.28 1.28 0 0 1-1.293-1.293V27.841a1.28 1.28 0 0 1 1.293-1.293zm60.75 72.386v-7.818c-.386-.11-.53-.346-.645-.481a2.738 2.738 0 0 1-.414-.543c-.259-.388-.491-.853-.776-1.421-.543-1.138-1.163-2.611-1.783-4.214-.595-1.577-1.19-3.258-1.603-4.731-.44-1.474-.75-2.689-.75-3.749V43.352a6.466 6.466 0 0 1 5.972-6.444v-7.774H32.119v69.8h59.459zm.492-59.46a3.856 3.856 0 0 0-3.878 3.879v3.877h7.756v-3.877a3.872 3.872 0 0 0-3.878-3.878zm-3.878 36.503c0 .317.155 1.201.437 2.275h6.899c.266-1.055.42-1.938.42-2.275V49.815H88.19v26.162zm2.198 7.575a52.767 52.767 0 0 0 1.68 4.007l.052.052c0-.026.026-.026.026-.078.517-1.008 1.111-2.456 1.68-3.981.333-.892.656-1.82.945-2.715h-5.366c.298.889.636 1.81.983 2.715zM41.167 47.23H82.53v2.585H41.167V47.23zm0 10.34H82.53v2.586H41.167V57.57zm0 10.341H82.53v2.585H41.167v-2.585zm0 10.34H82.53v2.586H41.167v-2.585z"/></svg>