<?xml version="1.0" encoding="UTF-8" standalone="no"?><!DOCTYPE svg PUBLIC "-//W3C//DTD SVG 1.1//EN" "http://www.w3.org/Graphics/SVG/1.1/DTD/svg11.dtd"><svg width="100%" height="100%" viewBox="0 0 99 96" version="1.1" xmlns="http://www.w3.org/2000/svg" xmlns:xlink="http://www.w3.org/1999/xlink" xml:space="preserve" xmlns:serif="http://www.serif.com/" style="fill-rule:evenodd;clip-rule:evenodd;stroke-linejoin:round;stroke-miterlimit:2;"><path d="M49.183,0c-27.16,0 -49.179,22.019 -49.179,49.187c0,21.728 14.091,40.164 33.635,46.671c2.462,0.45 3.358,-1.07 3.358,-2.374c-0,-1.167 -0.042,-4.263 -0.067,-8.366c-13.678,2.974 -16.565,-6.591 -16.565,-6.591c-2.237,-5.679 -5.462,-7.196 -5.462,-7.196c-4.466,-3.049 0.333,-2.991 0.333,-2.991c4.942,0.35 7.541,5.07 7.541,5.07c4.383,7.516 11.508,5.346 14.312,4.087c0.445,-3.178 1.716,-5.345 3.124,-6.574c-10.924,-1.242 -22.406,-5.462 -22.406,-24.31c-0,-5.367 1.916,-9.758 5.062,-13.199c-0.504,-1.242 -2.196,-6.241 0.483,-13.016c0,0 4.125,-1.32 13.524,5.041c4.014,-1.092 8.155,-1.648 12.316,-1.654c4.174,0.021 8.382,0.567 12.311,1.654c9.391,-6.361 13.511,-5.041 13.511,-5.041c2.684,6.775 1,11.774 0.488,13.016c3.154,3.441 5.058,7.832 5.058,13.199c-0,18.894 -11.499,23.052 -22.457,24.268c1.767,1.521 3.338,4.521 3.338,9.112c-0,6.574 -0.059,11.874 -0.059,13.491c0,1.316 0.884,2.845 3.383,2.366c19.528,-6.52 33.606,-24.939 33.606,-46.663c-0,-27.164 -22.019,-49.187 -49.188,-49.187Z" style="fill:#8030a3;"/></svg>