<svg xmlns="http://www.w3.org/2000/svg" baseProfile="full" width="26.388" height="21.587" viewBox="0 0 26.39 21.59"><path fill="#1DA1F2" d="M3.347 8.2S-.663 5.602 1.705.944c0 0 3.703 5.307 11.225 5.727 0 0-1.107-3.474 2.482-5.918 0 0 3.321-2.329 6.795.955 0 0 2.406-.63 3.437-1.375 0 0-.096 1.298-2.367 3.016 0 0 1.489-.162 3.111-.868 0 0-.62 1.202-2.701 2.815l-.014.166c.069 1.496.017 7.902-5.445 12.526a11.763 11.763 0 0 1-5.912 3.075C6.052 23.028 0 19.108 0 19.108s4.276.725 7.865-2.253c0 0-3.322.076-5.04-3.818 0 0 1.566.267 2.444-.115 0 0-4.124-.801-4.353-5.383 0 0 1.081.747 2.43.66z"/></svg>