<svg xmlns="http://www.w3.org/2000/svg" baseProfile="full" width="22.849" height="22.914" viewBox="0 0 22.85 22.91"><path fill="none" stroke-width="2" stroke-linejoin="round" stroke="#ED4956" d="M6.722 1h9.405a5.722 5.722 0 0 1 5.722 5.722v9.47a5.722 5.722 0 0 1-5.722 5.723H6.722A5.722 5.722 0 0 1 1 16.192v-9.47A5.722 5.722 0 0 1 6.722 1z"/><path fill="none" stroke-width="2" stroke-linejoin="round" stroke="#ED4956" d="M11.392 6.525a4.933 4.933 0 1 1 0 9.865 4.933 4.933 0 0 1 0-9.865z"/><path fill="#ED4956" d="M17.618 3.872a1.403 1.403 0 0 1 0 2.806 1.403 1.403 0 0 1 0-2.806z"/></svg>