<svg xmlns="http://www.w3.org/2000/svg" baseProfile="full" width="22.222" height="21.635" viewBox="0 0 22.22 21.63"><path fill="#0078D4" d="M11.073.594c5.807 0 10.515 4.593 10.515 10.26l-.16 1.79c.506.874.794 1.883.794 2.958 0 3.331-2.768 6.033-6.183 6.033a6.276 6.276 0 0 1-2.919-.714l-2.047.194c-5.808 0-10.516-4.594-10.516-10.26l.19-1.946A5.89 5.89 0 0 1 0 6.033C0 2.701 2.768 0 6.183 0c1.09 0 2.113.275 3.003.758l1.887-.164zM5.84 7.875s-.304 1.953 1.369 2.918c1.672.964 4.789 1.211 5.498 1.657.71.445 1.267 1.087.203 2.274-1.065 1.187-4.181.322-4.764-1.112-.583-1.434-2.66-.47-2.382.519.28.989.786 2.967 4.815 3.14 4.028.173 5.7-1.756 5.878-3.437.177-1.681-.101-3.461-4.46-4.228-4.358-.766-3.699-2.349-2.33-2.942 1.368-.594 3.09.099 3.699 1.013.608.915 2.407.965 2.584-.222.178-1.187-1.19-2.794-4.206-3.09-3.015-.297-5.802.79-5.904 3.51z"/></svg>