<svg xmlns="http://www.w3.org/2000/svg" baseProfile="full" width="23.61" height="23.008" viewBox="0 0 23.61 23.01"><path fill="#FFF" fill-rule="evenodd" d="M11.804 0C5.285 0 0 5.285 0 11.806c0 5.215 3.382 9.64 8.073 11.202.591.108.806-.257.806-.57 0-.28-.01-1.023-.016-2.008-3.283.714-3.976-1.582-3.976-1.582-.537-1.363-1.311-1.727-1.311-1.727-1.072-.732.08-.718.08-.718 1.186.084 1.81 1.217 1.81 1.217 1.052 1.804 2.762 1.283 3.435.981.107-.763.412-1.283.75-1.578-2.622-.298-5.378-1.311-5.378-5.835 0-1.288.46-2.342 1.215-3.168-.121-.298-.527-1.498.116-3.124 0 0 .99-.317 3.246 1.21a11.307 11.307 0 0 1 2.956-.397c1.002.005 2.012.136 2.955.397 2.254-1.527 3.243-1.21 3.243-1.21.644 1.626.24 2.826.117 3.124.757.826 1.214 1.88 1.214 3.168 0 4.535-2.76 5.533-5.39 5.825.424.365.801 1.085.801 2.187 0 1.578-.014 2.85-.014 3.238 0 .316.212.683.812.568 4.687-1.565 8.066-5.986 8.066-11.2C23.61 5.286 18.325 0 11.804 0z"/></svg>