<?xml version="1.0" encoding="UTF-8" standalone="no"?><!DOCTYPE svg PUBLIC "-//W3C//DTD SVG 1.1//EN" "http://www.w3.org/Graphics/SVG/1.1/DTD/svg11.dtd"><svg width="100%" height="100%" viewBox="0 0 520 592" version="1.1" xmlns="http://www.w3.org/2000/svg" xmlns:xlink="http://www.w3.org/1999/xlink" xml:space="preserve" xmlns:serif="http://www.serif.com/" style="fill-rule:evenodd;clip-rule:evenodd;stroke-linecap:round;stroke-miterlimit:1;"><g><path d="M264.995,294.997l-0,-259.119c-0,-12.436 -7.572,-18.16 -16.899,-12.775l-210.119,121.312c-9.327,5.385 -16.899,19.853 -16.899,32.289l-0,259.119" style="fill:#fff;stroke:#3d3d3d;stroke-width:29.81px;"/><path d="M21.078,435.823l224.403,129.56c10.77,6.218 27.086,6.894 36.413,1.509l210.119,-121.312c9.327,-5.385 8.155,-14.805 -2.614,-21.023l-224.404,-129.56" style="fill:#fff;stroke:#3d3d3d;stroke-width:29.81px;"/><path d="M21.078,435.823l243.917,-140.826" style="fill:none;stroke:#ff0076;stroke-width:29.81px;stroke-linejoin:round;stroke-miterlimit:1.5;stroke-dasharray:0,59.62,0,0;"/><path d="M143.036,102.668c3.71,-2.142 6.722,-0.403 6.722,3.881c-0,4.283 -3.012,9.5 -6.722,11.642c-3.71,2.142 -6.721,0.403 -6.721,-3.881c-0,-4.283 3.011,-9.5 6.721,-11.642Z" style="fill:#3d3d3d;"/><path d="M65.384,359.085c9.222,-5.325 16.709,-1.002 16.709,9.646c-0,10.649 -7.487,23.616 -16.709,28.94c-9.222,5.324 -16.708,1.002 -16.708,-9.646c-0,-10.649 7.486,-23.616 16.708,-28.94Z" style="fill:#00937b;"/><path d="M248.096,87.53c0,-3.347 -2.038,-4.888 -4.549,-3.439l-201.021,116.06c-2.511,1.449 -4.55,5.344 -4.55,8.692l0,12.131c0,3.348 2.039,4.889 4.55,3.439l201.021,-116.059c2.511,-1.45 4.549,-5.345 4.549,-8.692l0,-12.132Z" style="fill:#3d3d3d;"/><g transform="matrix(0.866025,-0.5,5.55112e-17,1.1547,-25.8779,-126.343)"><text x="81.26px" y="330.796px" style="font-family:'ArialMT', 'Arial', sans-serif;font-size:12.607px;fill:#fff;">h<tspan x="89.356px 93.401px 97.445px 105.542px 112.82px 116.865px 120.909px " y="330.796px 330.796px 330.796px 330.796px 330.796px 330.796px 330.796px ">ttps://</tspan></text></g><path d="M86.42,433.199c9.36,-5.404 24.557,-5.404 33.916,-0c9.36,5.403 9.36,14.177 0,19.581c-9.359,5.404 -24.556,5.404 -33.916,0c-9.359,-5.404 -9.359,-14.178 0,-19.581Z" style="fill:#7882ff;"/><path d="M129.057,457.815c9.359,-5.404 24.556,-5.404 33.916,-0c9.359,5.404 9.359,14.178 -0,19.581c-9.36,5.404 -24.557,5.404 -33.916,0c-9.359,-5.403 -9.359,-14.177 -0,-19.581Z" style="fill:#7882ff;"/><path d="M171.694,482.431c9.359,-5.403 24.556,-5.403 33.915,0c9.36,5.404 9.36,14.178 0,19.582c-9.359,5.403 -24.556,5.403 -33.915,-0c-9.36,-5.404 -9.36,-14.178 -0,-19.582Z" style="fill:#7882ff;"/><path d="M262.724,317.201l-163.554,94.427l190.309,109.875l163.553,-94.428l-190.308,-109.874Z" style="fill:#7882ff;"/><path d="M264.765,327.822l-147.198,84.985l10.219,5.9l147.198,-84.985l-10.219,-5.9Z" style="fill:#fff;"/><path d="M244.315,363.229l-106.31,61.378l10.219,5.899l106.31,-61.377l-10.219,-5.9Z" style="fill:#fff;"/><path d="M305.641,351.422l-147.198,84.984l10.219,5.9l147.198,-84.985l-10.219,-5.899Z" style="fill:#fff;"/><path d="M327.385,411.189l-106.31,61.378l10.219,5.9l106.31,-61.378l-10.219,-5.9Z" style="fill:#fff;"/><path d="M347.835,375.782l-147.198,84.985l10.219,5.9l147.198,-84.985l-10.219,-5.9Z" style="fill:#fff;"/><path d="M367.415,434.301l-106.309,61.378l10.219,5.9l106.309,-61.378l-10.219,-5.9Z" style="fill:#fff;"/><path d="M387.866,398.894l-147.198,84.985l10.219,5.9l147.198,-84.985l-10.219,-5.9Z" style="fill:#fff;"/><path d="M285.191,386.828l-106.31,61.378l10.219,5.9l106.31,-61.378l-10.219,-5.9Z" style="fill:#fff;"/><path d="M237.397,129.595l-188.721,108.958l-0,120.381l188.721,-108.959l-0,-120.38Z" style="fill:#00ffd6;"/><path d="M199.173,294.325l-106.155,61.289l-0,13.62l106.155,-61.289l0,-13.62Z" style="fill:#00937b;"/><path d="M110.489,239.598l46.297,-26.729l-0,12.951l18.797,-21.359l0,42.024l-18.797,0.347l-0,12.95l-46.297,26.73l0,-46.914Z" style="fill:#00937b;"/></g></svg>