<?xml version="1.0" encoding="UTF-8" standalone="no"?><!DOCTYPE svg PUBLIC "-//W3C//DTD SVG 1.1//EN" "http://www.w3.org/Graphics/SVG/1.1/DTD/svg11.dtd"><svg width="100%" height="100%" viewBox="0 0 5305 3832" version="1.1" xmlns="http://www.w3.org/2000/svg" xmlns:xlink="http://www.w3.org/1999/xlink" xml:space="preserve" xmlns:serif="http://www.serif.com/" style="fill-rule:evenodd;clip-rule:evenodd;stroke-linecap:square;stroke-linejoin:round;stroke-miterlimit:1.5;"><g id="PWANG"><path d="M2308.08,28.981c0,0 452.442,760.367 702.153,808.2c249.711,47.833 796.112,-521.204 796.112,-521.204c0,-0 -190.71,637.17 32.109,679.851c249.71,47.833 1466.16,-392.855 1466.16,-392.855c-0,-0 -994.193,696.508 -1032.2,892.35c-38.01,195.842 804.144,282.701 804.144,282.701c-0,0 -892.202,171.01 -930.212,366.852c-38.01,195.842 702.153,808.2 702.153,808.2c-0,-0 -1066.89,-329.902 -1340.09,-256.697c-243.891,65.35 -299.124,695.923 -299.124,695.923c0,-0 -363.119,-518.476 -607.011,-453.125c-273.202,73.204 -1032.2,892.351 -1032.2,892.351c0,-0 334.821,-900.399 203.983,-1051c-130.839,-150.6 -989.013,147.403 -989.013,147.403c-0,-0 685.897,-496.299 555.058,-646.898c-130.838,-150.6 -1340.09,-256.697 -1340.09,-256.697c-0,-0 1273.82,-226.576 1466.16,-392.856c171.626,-148.372 -312.119,-604.823 -312.119,-604.823c0,0 757.716,219.6 950.056,53.32c192.34,-166.28 203.982,-1051 203.982,-1051Z"/><path d="M2308.08,28.981c0,0 452.442,760.367 702.153,808.2c249.711,47.833 796.112,-521.204 796.112,-521.204c0,-0 -190.71,637.17 32.109,679.851c249.71,47.833 1466.16,-392.855 1466.16,-392.855c-0,-0 -994.193,696.508 -1032.2,892.35c-38.01,195.842 804.144,282.701 804.144,282.701c-0,0 -892.202,171.01 -930.212,366.852c-38.01,195.842 702.153,808.2 702.153,808.2c-0,-0 -1066.89,-329.902 -1340.09,-256.697c-243.891,65.35 -299.124,695.923 -299.124,695.923c0,-0 -363.119,-518.476 -607.011,-453.125c-273.202,73.204 -1032.2,892.351 -1032.2,892.351c0,-0 334.821,-900.399 203.983,-1051c-130.839,-150.6 -989.013,147.403 -989.013,147.403c-0,-0 685.897,-496.299 555.058,-646.898c-130.838,-150.6 -1340.09,-256.697 -1340.09,-256.697c-0,-0 1273.82,-226.576 1466.16,-392.856c171.626,-148.372 -312.119,-604.823 -312.119,-604.823c0,0 757.716,219.6 950.056,53.32c192.34,-166.28 203.982,-1051 203.982,-1051Zm31.007,115.717c81.484,127.982 233.334,355.144 383.726,520.176c99.945,109.673 201.003,191.063 280.896,206.366c81.188,15.552 192.327,-25.891 306.723,-95.975c160.893,-98.57 330.863,-250.974 431.323,-346.819c-25.616,112.214 -55.671,279.52 -43.004,405.19c10.545,104.608 52.393,180.777 133.178,196.252c77.519,14.848 245.328,-14.04 441.914,-64.221c272.041,-69.443 601.444,-177.466 816.199,-250.871c-170.212,124.92 -418.082,312.616 -600.981,475.517c-80.222,71.451 -148.063,138.314 -192.094,193.262c-33.313,41.571 -53.313,77.891 -58.602,105.141c-6.567,33.835 3.64,65.877 29.283,95.248c29.475,33.76 82.405,64.739 148.945,91.04c131.995,52.172 319.574,88.782 460.431,111.039c-152.95,36.149 -366.766,93.149 -526.602,161.329c-74.654,31.844 -137.806,66.42 -179.155,102.058c-33.206,28.619 -53.177,58.99 -58.97,88.839c-5.643,29.072 0.911,65.884 19.747,107.598c23.843,52.799 67.568,115.696 122.482,182.055c130.129,157.252 323.679,335.745 448.831,446.088c-186.548,-53.56 -508.157,-140.83 -778.986,-188.619c-180.943,-31.927 -339.999,-45.27 -424.943,-22.509c-81.642,21.876 -146.677,98.238 -194.446,197.611c-68.856,143.237 -104.046,333.411 -119.684,442.311c-67.993,-86.492 -193.555,-233.592 -324.804,-323.211c-91.056,-62.175 -185.56,-95.789 -267.201,-73.913c-84.944,22.761 -216.02,113.844 -356.757,231.965c-210.651,176.801 -445.537,413.184 -580.313,552.843c53.214,-158.136 131.586,-409.492 165.656,-610.74c14.378,-84.926 20.796,-161.259 15.044,-218.906c-4.543,-45.543 -17.274,-80.7 -36.697,-103.056c-19.941,-22.953 -52.422,-39.269 -95.488,-47.452c-53.629,-10.189 -125.608,-8.556 -206.182,1.193c-172.513,20.873 -386.186,78.419 -536.716,123.586c110.857,-89.703 255.001,-215.199 343.225,-326.378c44.476,-56.047 74.825,-109.341 83.471,-153.315c7.522,-38.258 0.341,-71.11 -22.264,-97.129c-18.206,-20.955 -53.686,-42.409 -103.321,-61.754c-65.606,-25.571 -157.79,-49.555 -262.99,-71.322c-239.845,-49.628 -548.354,-88.242 -758.222,-111.319c222.684,-43.807 561.967,-114.958 832.283,-190.84c195.339,-54.834 355.111,-113.721 414.819,-165.34c62.225,-53.794 60.382,-140.682 17.21,-236.548c-51.865,-115.167 -161.548,-245.032 -239.836,-329.402c134.922,32.773 358.322,79.774 546.945,84.692c134.112,3.497 251.082,-16.182 313.618,-70.245c61.537,-53.199 108.361,-174.214 140.079,-319.166c47.727,-218.118 65.652,-490.771 72.229,-642.349l0.001,0Z" style="fill:#fff;"/><path d="M5065.25,1235.67l-2053.68,587.767l1266.16,372.465l-1303.36,-301.847l1010.87,1391.99l-1089.8,-1347.67l-195.288,1143.28l104.776,-1142.2l-1447.67,1378.12l1380.15,-1420.67l-1386.86,334.123l1368.11,-404.07l-1905.58,-540.266l1942.78,469.648l-661.837,-936.784l740.766,892.468l269.957,-1712.02l-179.445,1710.93l977.819,-913.086l-910.296,955.645l2072.43,-517.82Z"/><path d="M2378.74,196.422c0,0 404.295,679.453 627.433,722.195c223.138,42.742 711.394,-465.74 711.394,-465.74c0,0 -170.416,569.365 28.691,607.505c223.138,42.742 1310.14,-351.05 1310.14,-351.05c-0,0 -888.396,622.389 -922.361,797.391c-33.965,175.001 718.571,252.617 718.571,252.617c-0,-0 -797.258,152.812 -831.223,327.813c-33.965,175.001 627.433,722.195 627.433,722.195c-0,-0 -953.354,-294.795 -1197.48,-229.381c-217.938,58.397 -267.293,621.866 -267.293,621.866c-0,0 -324.478,-463.301 -542.415,-404.905c-244.13,65.414 -922.361,797.391 -922.361,797.391c-0,-0 299.191,-804.583 182.275,-939.156c-116.915,-134.573 -883.766,131.717 -883.766,131.717c-0,0 612.907,-443.485 495.992,-578.058c-116.916,-134.573 -1197.48,-229.38 -1197.48,-229.38c0,-0 1138.26,-202.465 1310.14,-351.05c153.362,-132.583 -278.905,-540.46 -278.905,-540.46c-0,-0 677.083,196.231 848.955,47.646c171.872,-148.585 182.275,-939.156 182.275,-939.156Z" style="fill:url(#_Radial1);"/><path d="M2378.74,196.422c0,0 404.295,679.453 627.433,722.195c223.138,42.742 711.394,-465.74 711.394,-465.74c0,0 -170.416,569.365 28.691,607.505c223.138,42.742 1310.14,-351.05 1310.14,-351.05c-0,0 -888.396,622.389 -922.361,797.391c-33.965,175.001 718.571,252.617 718.571,252.617c-0,-0 -797.258,152.812 -831.223,327.813c-33.965,175.001 627.433,722.195 627.433,722.195c-0,-0 -953.354,-294.795 -1197.48,-229.381c-217.938,58.397 -267.293,621.866 -267.293,621.866c-0,0 -324.478,-463.301 -542.415,-404.905c-244.13,65.414 -922.361,797.391 -922.361,797.391c-0,-0 299.191,-804.583 182.275,-939.156c-116.915,-134.573 -883.766,131.717 -883.766,131.717c-0,0 612.907,-443.485 495.992,-578.058c-116.916,-134.573 -1197.48,-229.38 -1197.48,-229.38c0,-0 1138.26,-202.465 1310.14,-351.05c153.362,-132.583 -278.905,-540.46 -278.905,-540.46c-0,-0 677.083,196.231 848.955,47.646c171.872,-148.585 182.275,-939.156 182.275,-939.156Z" style="fill:url(#_Radial2);"/><path d="M2522.1,510.604c0,0 322.467,541.934 500.443,576.026c177.975,34.091 567.41,-371.476 567.41,-371.476c0,-0 -135.924,454.127 22.884,484.548c177.976,34.091 1044.97,-279.999 1044.97,-279.999c0,0 -708.587,496.42 -735.678,636.002c-27.091,139.581 573.134,201.488 573.134,201.488c0,0 -635.895,121.883 -662.986,261.465c-27.091,139.581 500.443,576.025 500.443,576.025c-0,-0 -760.399,-235.129 -955.117,-182.955c-173.828,46.577 -213.194,496.003 -213.194,496.003c0,-0 -258.804,-369.531 -432.632,-322.954c-194.718,52.175 -735.678,636.002 -735.678,636.002c-0,-0 238.635,-641.738 145.383,-749.074c-93.252,-107.336 -704.895,105.058 -704.895,105.058c0,-0 488.857,-353.725 395.605,-461.061c-93.252,-107.336 -955.117,-182.955 -955.117,-182.955c0,0 907.883,-161.486 1044.97,-279.998c122.322,-105.749 -222.456,-431.073 -222.456,-431.073c0,-0 540.044,156.514 677.13,38.002c137.085,-118.512 145.383,-749.074 145.383,-749.074Z" style="fill:#ff9d00;"/><path d="M3744.11,1756.26c0,-0 101.476,-392.675 204.048,-500.287c102.571,-107.611 291.404,85.305 265.186,126.885c-26.218,41.58 -344.399,672.043 -345.648,719.344c-1.249,47.301 -95.112,31.044 -153.798,-4.062c-58.685,-35.105 -71.083,40.395 -207.248,-425.479l-87.459,390.702c0,-0 1.929,77.739 -63.499,61.068c-65.428,-16.671 -145.796,20.386 -138.507,-163.32c7.288,-183.707 32.126,-655.733 74.628,-707.006c42.502,-51.273 37.488,-42.407 123.456,-28.889c85.969,13.518 202.317,55.02 202.317,55.02c-0,0 44.578,15.612 61.689,120.105c17.112,104.492 64.835,355.919 64.835,355.919Z" style="fill:#006dff;"/><clipPath id="_clip3"><path d="M3744.11,1756.26c0,-0 101.476,-392.675 204.048,-500.287c102.571,-107.611 291.404,85.305 265.186,126.885c-26.218,41.58 -344.399,672.043 -345.648,719.344c-1.249,47.301 -95.112,31.044 -153.798,-4.062c-58.685,-35.105 -71.083,40.395 -207.248,-425.479l-87.459,390.702c0,-0 1.929,77.739 -63.499,61.068c-65.428,-16.671 -145.796,20.386 -138.507,-163.32c7.288,-183.707 32.126,-655.733 74.628,-707.006c42.502,-51.273 37.488,-42.407 123.456,-28.889c85.969,13.518 202.317,55.02 202.317,55.02c-0,0 44.578,15.612 61.689,120.105c17.112,104.492 64.835,355.919 64.835,355.919Z"/></clipPath><g clip-path="url(#_clip3)"><circle cx="3696.5" cy="1807.27" r="39.535" style="fill:#0057cb;"/><circle cx="3692.47" cy="1589.82" r="39.535" style="fill:#0057cb;"/><circle cx="4072.09" cy="1340.84" r="39.535" style="fill:#0057cb;"/><circle cx="3993.01" cy="1712.68" r="39.535" style="fill:#0057cb;"/><circle cx="3874.41" cy="1894.32" r="39.535" style="fill:#0057cb;"/><circle cx="3558.13" cy="1459.44" r="39.535" style="fill:#0057cb;"/><circle cx="3374.87" cy="1775.72" r="39.535" style="fill:#0057cb;"/><circle cx="3374.87" cy="2064.24" r="39.535" style="fill:#0057cb;"/><circle cx="3736.04" cy="2024.71" r="39.535" style="fill:#0057cb;"/><circle cx="3335.33" cy="1578.04" r="39.535" style="fill:#0057cb;"/><circle cx="3399.99" cy="1340.84" r="39.535" style="fill:#0057cb;"/><circle cx="4091.85" cy="1595.12" r="39.535" style="fill:#0057cb;"/><circle cx="3256.26" cy="1894.32" r="39.535" style="fill:#0057cb;"/><circle cx="3518.6" cy="1727.29" r="39.535" style="fill:#0057cb;"/><circle cx="3858.18" cy="1462.96" r="39.535" style="fill:#0057cb;"/><circle cx="3795.34" cy="1702.54" r="39.535" style="fill:#0057cb;"/></g><path d="M3959.38,2116.23c3.27,-8.561 14.931,-38.724 26.808,-65.496c81.352,-183.385 284.852,-585.9 305.426,-618.53c12.744,-20.211 20.137,-46.358 15.251,-78.031c-3.868,-25.082 -19.352,-60.996 -48.489,-96.299c-43.697,-52.945 -118.906,-107.71 -192.368,-122.291c-66.132,-13.126 -131.519,0.623 -184.824,56.546c-36.417,38.207 -74.457,105.766 -107.434,183.042l-3.5,8.328c-29.241,-174.764 -122.078,-190.594 -122.078,-190.594c0.503,0.178 -125.488,-44.468 -218.527,-59.098c-34.422,-5.412 -55.776,-9.856 -71.156,-11.048c-27.91,-2.163 -48.347,2.06 -67.71,10.809c-19.198,8.673 -39.58,24.546 -70.198,61.483c-13.475,16.256 -31.888,57.146 -43.125,117.768c-28.946,156.174 -46.77,494.575 -52.723,644.619c-4.423,111.477 22.613,167.033 50.783,197.99c24.995,27.468 55.129,42.223 88.991,49.524c21.571,4.652 45.901,3.418 68.343,9.137c34.943,8.903 62.666,5.461 84.7,-2.127c40.824,-14.058 67.154,-44.681 81.118,-79.281c8.417,-20.856 11.42,-42.558 12.477,-56.528c-0.001,0.011 13.174,-58.845 13.174,-58.845c27.391,65.924 47.495,97.202 63.723,114.118c18.481,19.265 35.711,29.349 53.208,36.75c7.519,3.181 15.613,3.657 25.152,9.364c51.281,30.675 121.623,49.252 169.591,46.099c39.839,-2.618 70.478,-18.192 90.52,-38.59c17.548,-17.861 29.673,-40.355 32.867,-68.819Zm-215.267,-359.975c0,-0 101.476,-392.675 204.048,-500.287c102.571,-107.611 291.404,85.305 265.186,126.885c-26.218,41.58 -344.399,672.043 -345.648,719.344c-1.249,47.301 -95.112,31.044 -153.798,-4.062c-58.685,-35.105 -71.083,40.395 -207.248,-425.479l-87.459,390.702c0,-0 1.929,77.739 -63.499,61.068c-65.428,-16.671 -145.796,20.386 -138.507,-163.32c7.288,-183.707 32.126,-655.733 74.628,-707.006c42.502,-51.273 37.488,-42.407 123.456,-28.889c85.969,13.518 202.317,55.02 202.317,55.02c-0,0 44.578,15.612 61.689,120.105c17.112,104.492 64.835,355.919 64.835,355.919Z"/><path d="M4422.12,2238.85c0,-0 -84.147,128.753 -147.11,131.087c-62.963,2.333 -122.07,0.032 -51.247,-249.989c70.823,-250.02 296.79,-380.932 342.314,-322.978c45.523,57.954 -10.397,104.022 -5.623,136.687c4.774,32.664 24.178,150.763 194.898,167.672c0,0 25.802,27.393 59.896,-64.185c34.095,-91.578 61.728,-144.343 49.883,-188.054c-11.844,-43.711 -36.506,-103.058 -122.309,-165.251c-85.803,-62.192 -273.239,-137.194 -381.242,-91.984c-108.002,45.21 -409.183,165.586 -408.1,583.5c1.083,417.915 410.16,345.589 476.153,320.526c65.994,-25.063 314.105,-198.002 288.899,-255.315c-25.206,-57.313 -30.4,-138.914 -171.721,-148.393c-141.322,-9.478 -244.092,-12.356 -273.636,-14.337c-29.545,-1.982 -12.947,98.078 63.687,155.422c15.276,11.431 85.258,5.592 85.258,5.592Z" style="fill:#006dff;"/><clipPath id="_clip4"><path d="M4422.12,2238.85c0,-0 -84.147,128.753 -147.11,131.087c-62.963,2.333 -122.07,0.032 -51.247,-249.989c70.823,-250.02 296.79,-380.932 342.314,-322.978c45.523,57.954 -10.397,104.022 -5.623,136.687c4.774,32.664 24.178,150.763 194.898,167.672c0,0 25.802,27.393 59.896,-64.185c34.095,-91.578 61.728,-144.343 49.883,-188.054c-11.844,-43.711 -36.506,-103.058 -122.309,-165.251c-85.803,-62.192 -273.239,-137.194 -381.242,-91.984c-108.002,45.21 -409.183,165.586 -408.1,583.5c1.083,417.915 410.16,345.589 476.153,320.526c65.994,-25.063 314.105,-198.002 288.899,-255.315c-25.206,-57.313 -30.4,-138.914 -171.721,-148.393c-141.322,-9.478 -244.092,-12.356 -273.636,-14.337c-29.545,-1.982 -12.947,98.078 63.687,155.422c15.276,11.431 85.258,5.592 85.258,5.592Z"/></clipPath><g clip-path="url(#_clip4)"><circle cx="4450.35" cy="2163.08" r="39.535" style="fill:#0057cb;"/><circle cx="3993.01" cy="1933.86" r="39.535" style="fill:#0057cb;"/><circle cx="4588.72" cy="1933.86" r="39.535" style="fill:#0057cb;"/><circle cx="4746.86" cy="2068.49" r="39.535" style="fill:#0057cb;"/><circle cx="4628.25" cy="2250.14" r="39.535" style="fill:#0057cb;"/><circle cx="4351.51" cy="1736.18" r="39.535" style="fill:#0057cb;"/><circle cx="3993.01" cy="2210.6" r="39.535" style="fill:#0057cb;"/><circle cx="4151.15" cy="2289.67" r="39.535" style="fill:#0057cb;"/><circle cx="4489.88" cy="2380.52" r="39.535" style="fill:#0057cb;"/><circle cx="4151.15" cy="2012.93" r="39.535" style="fill:#0057cb;"/><circle cx="4151.15" cy="1775.72" r="39.535" style="fill:#0057cb;"/><circle cx="4845.69" cy="1950.94" r="39.535" style="fill:#0057cb;"/><circle cx="4230.22" cy="2477.32" r="39.535" style="fill:#0057cb;"/><circle cx="4272.44" cy="2083.1" r="39.535" style="fill:#0057cb;"/><circle cx="4667.79" cy="1775.72" r="39.535" style="fill:#0057cb;"/><circle cx="4467.43" cy="1617.58" r="39.535" style="fill:#0057cb;"/></g><path d="M4798.8,2192.92c28.75,-8.692 70.364,-35.38 103.167,-123.489c21.864,-58.727 40.84,-102.667 50.109,-138.397c10.446,-40.264 10.927,-74.55 2.368,-106.139c-15.394,-56.808 -45.803,-135.141 -157.314,-215.968c-59.621,-43.216 -161.474,-92.097 -260.547,-112.717c-77.019,-16.031 -152.383,-14.124 -210.724,10.298c-123.579,51.73 -466.139,190.904 -464.9,669.091c0.411,158.332 51.566,259.373 119.11,324.593c79.815,77.067 187.203,105.354 283.073,108.8c91.649,3.294 171.105,-15.882 199.348,-26.608c61.038,-23.181 256.562,-156.132 317.517,-242.17c37.938,-53.55 37.739,-103.901 23.228,-136.894c-1.504,-3.42 -2.98,-6.891 -4.435,-10.4Zm18.289,-160.636c33.237,-88.6 59.68,-140.261 48.048,-183.19c-11.844,-43.711 -36.506,-103.058 -122.309,-165.251c-85.803,-62.192 -273.239,-137.194 -381.242,-91.984c-108.002,45.21 -409.183,165.586 -408.1,583.5c1.083,417.915 410.16,345.589 476.153,320.526c65.994,-25.063 314.105,-198.002 288.899,-255.315c-25.206,-57.313 -30.4,-138.914 -171.721,-148.393c-141.322,-9.478 -244.092,-12.356 -273.636,-14.337c-29.545,-1.982 -12.947,98.078 63.687,155.422c15.276,11.431 85.258,5.592 85.258,5.592c0,-0 -84.147,128.753 -147.11,131.087c-62.963,2.333 -122.07,0.032 -51.247,-249.989c70.823,-250.02 296.79,-380.932 342.314,-322.978c45.523,57.954 -10.397,104.022 -5.623,136.687c4.774,32.664 24.178,150.763 194.898,167.672c0,0 25.802,27.393 59.896,-64.185l1.798,-4.765c1.96,1.747 3.848,3.585 5.66,5.509c0,0 -1.021,-1.28 -3.042,-3.264l-2.581,-2.344Zm-347.892,-121.862c-4.891,3.335 -9.563,6.827 -13.822,10.403c-22.41,18.818 -44.95,42.215 -65.747,69.783l22.486,1.07c14.225,0.74 28.449,1.48 42.674,2.219l24.822,1.426c-6.259,-20.321 -9.117,-37.423 -10.704,-48.282c-1.694,-11.592 -1.661,-23.843 0.291,-36.619Z"/><path d="M1700,1566.72c63.214,66.976 157.293,254.431 227.205,376.415c22.747,-137.492 18.553,-255.374 -18.927,-396.65c-14.753,-55.61 26.368,-50.084 113.091,-57.327c86.723,-7.243 95.325,-10.023 95.325,-10.023c0,-0 47.008,4.601 88.399,102.061c41.39,97.459 147.346,330.41 147.346,330.41c-0,0 66.436,-445.705 79.656,-534.394c11.097,-74.442 303.32,13.806 287.704,60.416c-15.615,46.609 -175.299,734.522 -165.301,780.771c9.997,46.249 -85.045,52.702 -150.379,32.506c-65.333,-20.195 -59.483,56.092 -302.189,-364.233l7.637,400.298c-0,-0 20.3,75.067 -47.215,74.378c-46.417,-0.473 -93.675,25.399 -130.526,-16.941c-0,-0 -0,-0 -0,-0c-5.498,-6.316 -10.764,-14.151 -15.76,-23.817c-28.02,-42.105 -90.584,-135.069 -164.884,-238.826l-51.182,-515.044Z" style="fill:#4bc955;"/><clipPath id="_clip5"><path d="M1700,1566.72c63.214,66.976 157.293,254.431 227.205,376.415c22.747,-137.492 18.553,-255.374 -18.927,-396.65c-14.753,-55.61 26.368,-50.084 113.091,-57.327c86.723,-7.243 95.325,-10.023 95.325,-10.023c0,-0 47.008,4.601 88.399,102.061c41.39,97.459 147.346,330.41 147.346,330.41c-0,0 66.436,-445.705 79.656,-534.394c11.097,-74.442 303.32,13.806 287.704,60.416c-15.615,46.609 -175.299,734.522 -165.301,780.771c9.997,46.249 -85.045,52.702 -150.379,32.506c-65.333,-20.195 -59.483,56.092 -302.189,-364.233l7.637,400.298c-0,-0 20.3,75.067 -47.215,74.378c-46.417,-0.473 -93.675,25.399 -130.526,-16.941c-0,-0 -0,-0 -0,-0c-5.498,-6.316 -10.764,-14.151 -15.76,-23.817c-28.02,-42.105 -90.584,-135.069 -164.884,-238.826l-51.182,-515.044Z"/></clipPath><g clip-path="url(#_clip5)"><path d="M1541.86,1657.11l1462.79,-355.814l-1541.86,594.07l1502.32,-277.791l-1502.32,513.952l1502.32,-276.743l-1462.79,513.952l1462.79,-237.209" style="fill:none;stroke:#33a03c;stroke-width:55.45px;"/></g><path d="M2121.16,1480.16l4.546,-93.115c0,0 94.624,-6.673 164.55,157.979c4.94,11.631 10.805,25.204 17.301,40.08l33.022,-221.536c6.575,-44.11 32.855,-78.489 81.552,-96.403c40.683,-14.966 115.039,-13.169 186.809,5.229c82.475,21.142 157.865,64.248 180.655,94.337c26.263,34.675 28.174,69.733 17.937,100.287c-12.254,36.577 -114.552,475.856 -150.121,673.297c-5.139,28.525 -9.286,60.226 -10.483,69.695c7.354,51.831 -14.777,92.615 -61.978,119.8c-44.301,25.514 -137.389,31.368 -208.157,9.492c-10.62,-3.282 -18.596,-1.827 -26.655,-3.135c-18.753,-3.043 -37.882,-8.756 -60.402,-23.091c-19.775,-12.589 -46.72,-38.21 -88.955,-95.764c-0,0 1.15,60.302 1.149,60.291c2.284,13.823 4.51,35.618 1.276,57.875c-5.365,36.923 -23.687,72.914 -60.016,96.248c-19.608,12.594 -45.724,22.509 -81.783,22.142c-29.606,-0.302 -59.589,8.824 -87.257,6.975c-40.103,-2.681 -78.048,-16.548 -112.119,-55.693c-8.781,-10.09 -17.41,-22.244 -25.49,-37.049c-28.816,-43.237 -89.23,-132.821 -160.588,-232.47c-9.434,-13.174 -15.243,-28.595 -16.845,-44.72l-51.182,-515.045c-3.915,-39.395 17.667,-76.915 53.689,-93.339c36.021,-16.423 78.501,-8.11 105.674,20.681c15.653,16.584 33.208,40.149 51.862,68.16c-0.102,-0.386 -0.204,-0.773 -0.307,-1.16c-14.087,-53.099 -1.96,-87.782 15.081,-112.207c14.114,-20.229 34.905,-37.082 66.195,-46.947c23.605,-7.442 61.809,-9.784 113.547,-14.105c56.128,-4.688 84.267,-8.395 84.267,-8.395l9.436,92.107c-11.14,1.532 -35.13,4.245 -86.002,8.494c-86.723,7.243 -127.844,1.717 -113.091,57.327c37.48,141.276 41.674,259.158 18.927,396.65c-69.912,-121.984 -163.991,-309.439 -227.205,-376.415l51.182,515.044c74.3,103.757 136.864,196.721 164.884,238.826c4.996,9.666 10.262,17.501 15.76,23.817c-0,-0 -0,-0 -0,-0c26.138,30.032 57.513,25.746 90.102,20.864c-1.332,5.945 -3.307,11.798 -5.894,17.48c-15.028,33.001 -47.947,54.183 -84.208,54.183c-0,-0 -0,-0 -0,-0c36.261,-0 69.18,-21.182 84.208,-54.183c2.587,-5.682 4.562,-11.535 5.894,-17.48c13.366,-1.971 26.93,-4.06 40.424,-3.923c67.515,0.689 47.215,-74.378 47.215,-74.378l-7.637,-400.298c242.706,420.325 236.856,344.038 302.189,364.233c65.334,20.196 160.376,13.743 150.379,-32.506c-9.998,-46.249 149.686,-734.162 165.301,-780.771c15.616,-46.61 -276.607,-134.858 -287.704,-60.416c-13.22,88.689 -79.656,534.394 -79.656,534.394c-0,0 -105.956,-232.951 -147.346,-330.41c-33.754,-79.479 -71.244,-97.202 -83.932,-101.033Z"/><path d="M1541.86,2291.18c-73.426,63.372 -174.039,127.221 -306.645,187.682l114.731,357.778c0,0 -146.904,21.316 -219.577,-13.146l-317.288,-639.39c-0,0 308.918,-383.675 631.456,-380.612c26.771,0.254 52.123,3.082 75.736,8.225l21.587,479.463Zm-331.345,56.887c-0,-0 210.897,-208.702 222.578,-285.065c11.681,-76.364 -39.996,-72.655 -120.069,-18.367c-80.073,54.288 -137.543,93.251 -137.543,93.251l35.034,210.181Z" style="fill:#006dff;"/><clipPath id="_clip6"><path d="M1541.86,2291.18c-73.426,63.372 -174.039,127.221 -306.645,187.682l114.731,357.778c0,0 -146.904,21.316 -219.577,-13.146l-317.288,-639.39c-0,0 308.918,-383.675 631.456,-380.612c26.771,0.254 52.123,3.082 75.736,8.225l21.587,479.463Zm-331.345,56.887c-0,-0 210.897,-208.702 222.578,-285.065c11.681,-76.364 -39.996,-72.655 -120.069,-18.367c-80.073,54.288 -137.543,93.251 -137.543,93.251l35.034,210.181Z"/></clipPath><g clip-path="url(#_clip6)"><circle cx="1248.89" cy="2044.2" r="39.535" style="fill:#0057cb;"/><circle cx="1186.04" cy="2283.78" r="39.535" style="fill:#0057cb;"/><circle cx="1087.21" cy="2388.51" r="39.535" style="fill:#0057cb;"/><circle cx="1083.17" cy="2171.07" r="39.535" style="fill:#0057cb;"/><circle cx="1462.79" cy="1965.13" r="39.535" style="fill:#0057cb;"/><circle cx="1395.2" cy="2329.2" r="39.535" style="fill:#0057cb;"/><circle cx="1169.82" cy="2823.63" r="39.535" style="fill:#0057cb;"/><circle cx="930.873" cy="2125.64" r="39.535" style="fill:#0057cb;"/><circle cx="1126.74" cy="1973.39" r="39.535" style="fill:#0057cb;"/><circle cx="1502.32" cy="1803.47" r="39.535" style="fill:#0057cb;"/><circle cx="1126.74" cy="2605.95" r="39.535" style="fill:#0057cb;"/><circle cx="1248.89" cy="2487.34" r="39.535" style="fill:#0057cb;"/><circle cx="1344.64" cy="1882.54" r="39.535" style="fill:#0057cb;"/><circle cx="1482.56" cy="2176.37" r="39.535" style="fill:#0057cb;"/><circle cx="1288.42" cy="2685.02" r="39.535" style="fill:#0057cb;"/><circle cx="909.3" cy="2308.53" r="39.535" style="fill:#0057cb;"/></g><path d="M1602.31,2361.23c21.468,-18.529 33.254,-45.879 31.979,-74.208l-21.587,-479.464c-1.888,-41.917 -31.745,-77.317 -72.744,-86.246c-29.481,-6.42 -61.124,-10.022 -94.547,-10.34c-147.756,-1.403 -294.039,65.242 -415.159,149.103c-170.105,117.777 -289.246,266.005 -289.246,266.005c-22.636,28.114 -26.858,66.824 -10.813,99.157l317.288,639.39c9.235,18.611 24.465,33.572 43.238,42.474c90.3,42.821 272.509,21.11 272.509,21.11c26.934,-3.908 50.781,-19.476 65.196,-42.561c14.415,-23.085 17.935,-51.345 9.625,-77.261l-90.155,-281.141c106.218,-54.141 189.979,-110.405 254.416,-166.018Zm-60.455,-70.047c-73.426,63.372 -174.039,127.221 -306.645,187.682l114.731,357.778c0,0 -146.904,21.316 -219.577,-13.146l-317.288,-639.39c-0,0 308.918,-383.675 631.456,-380.612c26.771,0.254 52.123,3.082 75.736,8.225l21.587,479.463Zm-331.345,56.887c-0,-0 210.897,-208.702 222.578,-285.065c11.681,-76.364 -39.996,-72.655 -120.069,-18.367c-80.073,54.288 -137.543,93.251 -137.543,93.251l35.034,210.181Z"/><path d="M3011.27,1511.85c88.216,14.003 283.255,905.051 217.169,918.876c-66.087,13.825 -167.503,35.658 -191.48,-12.767c-23.977,-48.426 -45.311,-142.325 -47.183,-170.513l-234.47,88.558l43.097,-217.626c51.439,-17.906 116.879,-20.011 148.727,-17.599c-0,0 -29.637,-176.2 -46.337,-275.491l110.477,-313.438Z" style="fill:#006dff;"/><clipPath id="_clip7"><path d="M3011.27,1511.85c88.216,14.003 283.255,905.051 217.169,918.876c-66.087,13.825 -167.503,35.658 -191.48,-12.767c-23.977,-48.426 -45.311,-142.325 -47.183,-170.513l-234.47,88.558l43.097,-217.626c51.439,-17.906 116.879,-20.011 148.727,-17.599c-0,0 -29.637,-176.2 -46.337,-275.491l110.477,-313.438Z"/></clipPath><g clip-path="url(#_clip7)"><path d="M2942.83,1817.63c18.896,-10.91 43.095,-4.426 54.005,14.471c10.91,18.897 4.426,43.096 -14.471,54.006c-18.896,10.909 -43.095,4.425 -54.005,-14.471c-10.91,-18.897 -4.426,-43.096 14.471,-54.006Z" style="fill:#0057cb;"/><path d="M3008.19,2056.53c18.896,-10.91 43.095,-4.425 54.005,14.471c10.91,18.897 4.426,43.096 -14.47,54.006c-18.897,10.91 -43.096,4.425 -54.006,-14.471c-10.91,-18.897 -4.426,-43.096 14.471,-54.006Z" style="fill:#0057cb;"/><path d="M2974.96,2196.65c18.897,-10.91 43.096,-4.426 54.006,14.471c10.909,18.896 4.425,43.095 -14.471,54.005c-18.897,10.91 -43.096,4.426 -54.006,-14.47c-10.91,-18.897 -4.426,-43.096 14.471,-54.006Z" style="fill:#0057cb;"/><path d="M3088.53,1642.21c18.897,-10.91 43.096,-4.426 54.006,14.471c10.91,18.896 4.426,43.095 -14.471,54.005c-18.896,10.91 -43.095,4.426 -54.005,-14.47c-10.91,-18.897 -4.426,-43.096 14.47,-54.006Z" style="fill:#0057cb;"/><path d="M3143.02,1939.15c18.897,-10.91 43.096,-4.426 54.006,14.471c10.91,18.897 4.426,43.096 -14.471,54.006c-18.896,10.909 -43.095,4.425 -54.005,-14.471c-10.91,-18.897 -4.426,-43.096 14.47,-54.006Z" style="fill:#0057cb;"/><path d="M3117.92,2365.19c18.896,-10.909 43.095,-4.425 54.005,14.471c10.91,18.897 4.426,43.096 -14.47,54.006c-18.897,10.91 -43.096,4.426 -54.006,-14.471c-10.91,-18.897 -4.426,-43.096 14.471,-54.006Z" style="fill:#0057cb;"/><path d="M3164.39,2201.41c18.897,-10.91 43.096,-4.426 54.006,14.471c10.91,18.896 4.426,43.095 -14.471,54.005c-18.896,10.91 -43.096,4.426 -54.005,-14.47c-10.91,-18.897 -4.426,-43.096 14.47,-54.006Z" style="fill:#0057cb;"/><path d="M2944.92,1629.76c18.896,-10.91 43.095,-4.426 54.005,14.471c10.91,18.896 4.426,43.095 -14.471,54.005c-18.896,10.91 -43.095,4.426 -54.005,-14.471c-10.91,-18.896 -4.426,-43.095 14.471,-54.005Z" style="fill:#0057cb;"/><path d="M3211.27,1815.26c18.897,-10.91 43.096,-4.426 54.006,14.471c10.91,18.896 4.426,43.095 -14.471,54.005c-18.897,10.91 -43.096,4.426 -54.006,-14.47c-10.909,-18.897 -4.425,-43.096 14.471,-54.006Z" style="fill:#0057cb;"/><path d="M2780.9,2216.34c18.897,-10.91 43.096,-4.426 54.006,14.47c10.91,18.897 4.425,43.096 -14.471,54.006c-18.897,10.91 -43.096,4.426 -54.006,-14.471c-10.91,-18.896 -4.425,-43.095 14.471,-54.005Z" style="fill:#0057cb;"/></g><path d="M3025.78,1420.47c-44.109,-7.002 -86.924,18.503 -101.771,60.624l-110.477,313.439c-5.211,14.783 -6.58,30.648 -3.98,46.105l29.178,173.474c-24.029,3.675 -48.434,9.12 -70.742,16.885c-31.004,10.793 -53.968,37.206 -60.345,69.41l-43.097,217.626c-6.528,32.963 5.329,66.874 30.974,88.588c25.645,21.714 61.047,27.818 92.483,15.945l134.439,-50.777c9.161,32.129 20.11,64.021 31.602,87.229c19.255,38.889 53.992,65.328 102.41,76.02c52.916,11.686 132.933,-1.609 190.935,-13.743c25.496,-5.333 50.687,-19.551 68.351,-50.876c11.51,-20.413 22.138,-72.572 16.193,-146.622c-15.754,-196.241 -112.043,-616.792 -187.316,-783.188c-19.036,-42.079 -39.26,-71.605 -55.709,-87.47c-21.422,-20.662 -43.77,-29.596 -63.128,-32.669Zm-14.506,91.383c88.216,14.003 283.255,905.051 217.169,918.876c-66.087,13.825 -167.503,35.658 -191.48,-12.767c-23.977,-48.426 -45.311,-142.325 -47.183,-170.513l-234.47,88.558l43.097,-217.626c51.439,-17.906 116.879,-20.011 148.727,-17.599c-0,0 -29.637,-176.2 -46.337,-275.491l110.477,-313.438Z"/><path d="M2553.53,3107.09c-0,-0 35.423,59.02 60.733,68.736c25.311,9.716 91.128,-10.442 91.128,-10.442c0,-0 -45.185,51.928 -46.604,79.002c-1.419,27.074 38.091,83.441 38.091,83.441c-0,-0 -63.35,-26.928 -89.537,-19.911c-26.187,7.017 -67.586,62.012 -67.586,62.012c-0,-0 6.033,-68.571 -8.733,-91.308c-14.765,-22.737 -79.861,-45.115 -79.861,-45.115c-0,-0 67.078,-15.452 84.14,-36.521c17.061,-21.069 18.229,-89.894 18.229,-89.894Z" style="fill:#ff4b00;"/><path d="M2576.12,3093.52c-6.053,-10.086 -18.058,-14.939 -29.42,-11.895c-11.362,3.045 -19.332,13.25 -19.531,25.012c-0,-0 -0.387,22.839 -4.094,45.306c-1.846,11.19 -3.565,22.644 -8.265,28.448c-4.7,5.805 -15.546,9.867 -26.109,14c-21.205,8.297 -43.465,13.424 -43.465,13.424c-11.463,2.64 -19.788,12.557 -20.404,24.304c-0.615,11.747 6.628,22.48 17.752,26.304c0,0 21.602,7.426 41.824,17.894c10.072,5.214 20.434,10.388 24.502,16.652c4.068,6.264 4.579,17.834 5.246,29.157c1.338,22.731 -0.664,45.486 -0.664,45.486c-1.031,11.717 5.828,22.7 16.81,26.916c10.981,4.215 23.427,0.643 30.502,-8.755c-0,0 13.738,-18.25 29.942,-34.247c8.072,-7.968 16.194,-16.224 23.408,-18.157c7.215,-1.934 18.377,1.155 29.351,4.02c22.032,5.752 43.055,14.688 43.055,14.688c10.825,4.601 23.39,1.472 30.793,-7.67c7.403,-9.141 7.851,-22.082 1.099,-31.715c0,0 -13.111,-18.704 -23.318,-39.059c-5.084,-10.139 -10.426,-20.415 -10.035,-27.874c0.391,-7.458 6.778,-17.12 12.894,-26.672c12.278,-19.176 27.273,-36.408 27.273,-36.408c7.722,-8.874 8.628,-21.791 2.222,-31.656c-6.407,-9.865 -18.576,-14.291 -29.823,-10.846c-0,-0 -21.841,6.689 -44.354,10.107c-11.213,1.702 -22.637,3.607 -29.61,0.93c-6.973,-2.676 -14.188,-11.736 -21.382,-20.505c-14.444,-17.603 -26.199,-37.189 -26.199,-37.189Zm-22.598,13.564c-0,-0 35.423,59.02 60.733,68.736c25.311,9.716 91.128,-10.442 91.128,-10.442c0,-0 -45.185,51.928 -46.604,79.002c-1.419,27.074 38.091,83.441 38.091,83.441c-0,-0 -63.35,-26.928 -89.537,-19.911c-26.187,7.017 -67.586,62.012 -67.586,62.012c-0,-0 6.033,-68.571 -8.733,-91.308c-14.765,-22.737 -79.861,-45.115 -79.861,-45.115c-0,-0 67.078,-15.452 84.14,-36.521c17.061,-21.069 18.229,-89.894 18.229,-89.894Z"/><path d="M4982.62,2539.89l-39.61,71.905c-2.412,4.379 -3.138,9.489 -2.04,14.367c1.098,4.877 3.943,9.184 7.999,12.107l66.598,47.999l-80.626,-15.451c-4.91,-0.941 -9.994,-0.052 -14.294,2.499c-4.299,2.552 -7.516,6.589 -9.043,11.349l-25.07,78.172l-10.219,-81.455c-0.623,-4.96 -3.039,-9.521 -6.794,-12.822c-3.755,-3.301 -8.589,-5.113 -13.588,-5.093l-82.093,0.313l74.31,-34.89c4.526,-2.125 8.117,-5.833 10.095,-10.424c1.979,-4.591 2.208,-9.748 0.645,-14.497l-25.665,-77.978l56.145,59.891c3.419,3.648 8.055,5.917 13.033,6.38c4.978,0.463 9.954,-0.912 13.987,-3.866l66.23,-48.506Z" style="fill:#ff4b00;"/><path d="M4832.22,2607.25l-69.584,32.671c-11.192,5.255 -17.227,17.583 -14.512,29.645c2.715,12.063 13.45,20.616 25.814,20.569l76.872,-0.293l9.57,76.275c1.539,12.268 11.399,21.816 23.71,22.962c12.311,1.145 23.763,-6.421 27.539,-18.195l23.476,-73.2l75.498,14.469c12.144,2.327 24.272,-4.1 29.166,-15.454c4.893,-11.354 1.236,-24.584 -8.794,-31.813l-62.364,-44.947l37.092,-67.333c5.965,-10.83 3.601,-24.35 -5.685,-32.513c-9.287,-8.163 -22.999,-8.773 -32.974,-1.468l-62.019,45.422l-52.575,-56.083c-8.456,-9.02 -22.046,-10.95 -32.679,-4.64c-10.633,6.31 -15.45,19.162 -11.585,30.906l24.034,73.02Zm150.397,-67.361l-39.61,71.905c-2.412,4.379 -3.138,9.489 -2.04,14.367c1.098,4.877 3.943,9.184 7.999,12.107l66.598,47.999l-80.626,-15.451c-4.91,-0.941 -9.994,-0.052 -14.294,2.499c-4.299,2.552 -7.516,6.589 -9.043,11.349l-25.07,78.172l-10.219,-81.455c-0.623,-4.96 -3.039,-9.521 -6.794,-12.822c-3.755,-3.301 -8.589,-5.113 -13.588,-5.093l-82.093,0.313l74.31,-34.89c4.526,-2.125 8.117,-5.833 10.095,-10.424c1.979,-4.591 2.208,-9.748 0.645,-14.497l-25.665,-77.978l56.145,59.891c3.419,3.648 8.055,5.917 13.033,6.38c4.978,0.463 9.954,-0.912 13.987,-3.866l66.23,-48.506Z"/><path d="M4151.32,654.726c3.566,-0.024 6.87,1.869 8.652,4.957c1.783,3.088 1.771,6.895 -0.033,9.972l-22.991,39.219c-0.244,0.417 -0.397,0.881 -0.447,1.362c-0.051,0.481 0.002,0.967 0.154,1.425l14.335,43.143c1.124,3.384 0.345,7.111 -2.041,9.76c-2.386,2.65 -6.011,3.815 -9.494,3.05l-44.404,-9.746c-0.472,-0.103 -0.961,-0.105 -1.434,-0.004c-0.473,0.1 -0.919,0.3 -1.308,0.587l-36.601,26.965c-2.871,2.114 -6.656,2.525 -9.914,1.075c-3.257,-1.451 -5.485,-4.538 -5.834,-8.087l-4.453,-45.243c-0.047,-0.481 -0.197,-0.946 -0.438,-1.365c-0.242,-0.419 -0.57,-0.781 -0.963,-1.062l-36.956,-26.478c-2.898,-2.076 -4.458,-5.55 -4.086,-9.096c0.373,-3.546 2.621,-6.619 5.888,-8.048l41.653,-18.215c0.443,-0.194 0.839,-0.48 1.163,-0.839c0.323,-0.359 0.566,-0.783 0.712,-1.244l13.762,-43.328c1.08,-3.399 3.901,-5.956 7.388,-6.697c3.488,-0.742 7.106,0.447 9.474,3.112l30.195,33.986c0.321,0.361 0.716,0.65 1.157,0.846c0.442,0.197 0.92,0.297 1.404,0.294l45.46,-0.301Z" style="fill:#ff4b00;"/><path d="M4020.51,648.918l-32.118,14.046c-11.952,5.227 -20.176,16.468 -21.54,29.441c-1.363,12.973 4.344,25.679 14.948,33.276l28.496,20.417l3.434,34.887c1.277,12.982 9.427,24.278 21.344,29.584c11.917,5.305 25.764,3.803 36.267,-3.934l28.223,-20.792l34.241,7.515c12.741,2.797 26.002,-1.464 34.731,-11.158c8.728,-9.693 11.579,-23.328 7.466,-35.707l-11.053,-33.267l17.728,-30.242c6.597,-11.254 6.643,-25.183 0.121,-36.479c-6.522,-11.297 -18.608,-18.222 -31.652,-18.135l-35.055,0.232l-23.284,-26.206c-8.664,-9.752 -21.897,-14.1 -34.656,-11.388c-12.76,2.712 -23.08,12.067 -27.029,24.499l-10.612,33.411Zm130.81,5.808c3.566,-0.024 6.87,1.869 8.652,4.957c1.783,3.088 1.771,6.895 -0.033,9.972l-22.991,39.219c-0.244,0.417 -0.397,0.881 -0.447,1.362c-0.051,0.481 0.002,0.967 0.154,1.425l14.335,43.143c1.124,3.384 0.345,7.111 -2.041,9.76c-2.386,2.65 -6.011,3.815 -9.494,3.05l-44.404,-9.746c-0.472,-0.103 -0.961,-0.105 -1.434,-0.004c-0.473,0.1 -0.919,0.3 -1.308,0.587l-36.601,26.965c-2.871,2.114 -6.656,2.525 -9.914,1.075c-3.257,-1.451 -5.485,-4.538 -5.834,-8.087l-4.453,-45.243c-0.047,-0.481 -0.197,-0.946 -0.438,-1.365c-0.242,-0.419 -0.57,-0.781 -0.963,-1.062l-36.956,-26.478c-2.898,-2.076 -4.458,-5.55 -4.086,-9.096c0.373,-3.546 2.621,-6.619 5.888,-8.048l41.653,-18.215c0.443,-0.194 0.839,-0.48 1.163,-0.839c0.323,-0.359 0.566,-0.783 0.712,-1.244l13.762,-43.328c1.08,-3.399 3.901,-5.956 7.388,-6.697c3.488,-0.742 7.106,0.447 9.474,3.112l30.195,33.986c0.321,0.361 0.716,0.65 1.157,0.846c0.442,0.197 0.92,0.297 1.404,0.294l45.46,-0.301Z"/><path d="M1000.14,1526.75c0.45,-2.874 1.427,-5.641 2.882,-8.161c6.521,-11.296 20.986,-15.172 32.281,-8.65c11.296,6.521 15.172,20.986 8.65,32.281c-1.455,2.52 -3.363,4.75 -5.627,6.577l-17.774,14.34c-5.983,4.826 -7.971,13.073 -4.844,20.095c3.126,7.022 10.585,11.063 18.175,9.847l22.549,-3.614c2.873,-0.461 5.807,-0.387 8.653,0.218c12.758,2.712 20.914,15.271 18.202,28.029c-2.712,12.758 -15.271,20.914 -28.029,18.202c-2.846,-0.605 -5.556,-1.73 -7.993,-3.319l-19.13,-12.473c-6.439,-4.199 -14.897,-3.541 -20.609,1.603c-5.712,5.143 -7.251,13.485 -3.749,20.328l10.406,20.329c1.325,2.59 2.161,5.403 2.465,8.297c1.364,12.971 -8.06,24.609 -21.032,25.972c-12.971,1.364 -24.609,-8.061 -25.972,-21.032c-0.304,-2.894 -0.071,-5.819 0.687,-8.628l5.951,-22.048c2.003,-7.421 -1.236,-15.262 -7.893,-19.105c-6.657,-3.843 -15.066,-2.728 -20.492,2.717l-16.119,16.178c-2.053,2.061 -4.47,3.725 -7.128,4.909c-11.916,5.305 -25.896,-0.062 -31.201,-11.977c-5.305,-11.915 0.062,-25.896 11.977,-31.201c2.658,-1.183 5.512,-1.866 8.418,-2.013l22.808,-1.153c7.677,-0.388 14.133,-5.892 15.731,-13.41c1.598,-7.519 -2.061,-15.172 -8.916,-18.65l-20.367,-10.33c-2.595,-1.316 -4.925,-3.101 -6.872,-5.263c-8.728,-9.693 -7.944,-24.647 1.749,-33.375c9.693,-8.727 24.647,-7.943 33.375,1.749c1.947,2.163 3.478,4.666 4.515,7.385l8.145,21.335c2.742,7.181 9.971,11.62 17.615,10.817c7.645,-0.804 13.793,-6.649 14.982,-14.243l3.531,-22.563Z" style="fill:#ff4b00;"/><path d="M976.387,1513.67c-1.586,-2.585 -3.408,-5.026 -5.447,-7.29c-18.461,-20.502 -50.094,-22.16 -70.597,-3.699c-20.503,18.46 -22.161,50.094 -3.7,70.597c2.038,2.264 4.275,4.331 6.68,6.178c-2.948,0.709 -5.833,1.688 -8.615,2.927c-25.204,11.222 -36.556,40.795 -25.335,65.999c11.222,25.204 40.795,36.556 65.999,25.335c2.783,-1.239 5.44,-2.727 7.94,-4.444c-0.237,3.023 -0.197,6.069 0.122,9.098c2.883,27.438 27.501,47.373 54.939,44.489c27.439,-2.883 47.373,-27.501 44.49,-54.939c-0.319,-3.03 -0.913,-6.017 -1.773,-8.925c2.802,1.16 5.711,2.063 8.691,2.696c26.986,5.736 53.553,-11.517 59.289,-38.503c5.736,-26.986 -11.517,-53.553 -38.503,-59.289c-2.98,-0.633 -6.005,-0.992 -9.036,-1.072c1.969,-2.307 3.726,-4.794 5.25,-7.432c13.794,-23.893 5.596,-54.491 -18.297,-68.286c-23.893,-13.794 -54.491,-5.596 -68.286,18.297c-1.523,2.638 -2.798,5.405 -3.811,8.263Zm23.755,13.077c0.45,-2.874 1.427,-5.641 2.882,-8.161c6.521,-11.296 20.986,-15.172 32.281,-8.65c11.296,6.521 15.172,20.986 8.65,32.281c-1.455,2.52 -3.363,4.75 -5.627,6.577l-17.774,14.34c-5.983,4.826 -7.971,13.073 -4.844,20.095c3.126,7.022 10.585,11.063 18.175,9.847l22.549,-3.614c2.873,-0.461 5.807,-0.387 8.653,0.218c12.758,2.712 20.914,15.271 18.202,28.029c-2.712,12.758 -15.271,20.914 -28.029,18.202c-2.846,-0.605 -5.556,-1.73 -7.993,-3.319l-19.13,-12.473c-6.439,-4.199 -14.897,-3.541 -20.609,1.603c-5.712,5.143 -7.251,13.485 -3.749,20.328l10.406,20.329c1.325,2.59 2.161,5.403 2.465,8.297c1.364,12.971 -8.06,24.609 -21.032,25.972c-12.971,1.364 -24.609,-8.061 -25.972,-21.032c-0.304,-2.894 -0.071,-5.819 0.687,-8.628l5.951,-22.048c2.003,-7.421 -1.236,-15.262 -7.893,-19.105c-6.657,-3.843 -15.066,-2.728 -20.492,2.717l-16.119,16.178c-2.053,2.061 -4.47,3.725 -7.128,4.909c-11.916,5.305 -25.896,-0.062 -31.201,-11.977c-5.305,-11.915 0.062,-25.896 11.977,-31.201c2.658,-1.183 5.512,-1.866 8.418,-2.013l22.808,-1.153c7.677,-0.388 14.133,-5.892 15.731,-13.41c1.598,-7.519 -2.061,-15.172 -8.916,-18.65l-20.367,-10.33c-2.595,-1.316 -4.925,-3.101 -6.872,-5.263c-8.728,-9.693 -7.944,-24.647 1.749,-33.375c9.693,-8.727 24.647,-7.943 33.375,1.749c1.947,2.163 3.478,4.666 4.515,7.385l8.145,21.335c2.742,7.181 9.971,11.62 17.615,10.817c7.645,-0.804 13.793,-6.649 14.982,-14.243l3.531,-22.563Z"/><path d="M4923.83,1440.12c2.038,-0.173 4.091,0.032 6.055,0.605c8.803,2.568 13.865,11.8 11.297,20.603c-2.568,8.803 -11.8,13.865 -20.603,11.297c-1.964,-0.573 -3.805,-1.503 -5.431,-2.745l-12.761,-9.745c-4.295,-3.28 -10.259,-3.261 -14.533,0.047c-4.274,3.307 -5.788,9.076 -3.691,14.057l6.233,14.797c0.794,1.885 1.234,3.901 1.296,5.946c0.277,9.166 -6.938,16.833 -16.104,17.111c-9.166,0.277 -16.833,-6.938 -17.111,-16.104c-0.062,-2.045 0.254,-4.084 0.933,-6.014l5.325,-15.147c1.792,-5.099 -0.069,-10.765 -4.536,-13.808c-4.466,-3.042 -10.421,-2.7 -14.509,0.834l-12.147,10.5c-1.548,1.338 -3.329,2.379 -5.255,3.07c-8.631,3.096 -18.153,-1.397 -21.249,-10.028c-3.097,-8.632 1.396,-18.153 10.028,-21.25c1.925,-0.691 3.962,-1.02 6.007,-0.971l16.052,0.383c5.402,0.129 10.216,-3.392 11.73,-8.58c1.513,-5.188 -0.652,-10.745 -5.277,-13.541l-13.74,-8.308c-1.751,-1.058 -3.291,-2.431 -4.543,-4.049c-5.612,-7.252 -4.281,-17.696 2.971,-23.309c7.252,-5.612 17.696,-4.281 23.308,2.971c1.252,1.618 2.195,3.453 2.781,5.413l4.595,15.385c1.547,5.178 6.383,8.668 11.785,8.504c5.402,-0.163 10.018,-3.94 11.248,-9.202l3.655,-15.635c0.466,-1.992 1.296,-3.881 2.447,-5.572c5.163,-7.579 15.507,-9.54 23.086,-4.377c7.579,5.162 9.54,15.507 4.378,23.085c-1.152,1.691 -2.606,3.155 -4.29,4.317l-13.211,9.125c-4.447,3.071 -6.272,8.749 -4.447,13.836c1.825,5.087 6.844,8.31 12.229,7.854l15.999,-1.355Z" style="fill:#ff9d00;"/><path d="M4871.25,1368.96c-15.022,-15.499 -39.647,-17.555 -57.112,-4.038c-17.466,13.517 -21.652,37.87 -10.416,56.299c-19.383,9.498 -28.948,32.282 -21.49,53.069c7.458,20.788 29.326,32.295 50.326,27.304c3.042,21.37 21.756,37.506 43.831,36.837c22.074,-0.669 39.776,-17.91 41.518,-39.425c21.264,3.71 42.394,-9.101 48.579,-30.302c6.185,-21.202 -4.742,-43.365 -24.666,-51.67c10.1,-19.077 4.445,-43.131 -13.807,-55.565c-18.253,-12.434 -42.707,-8.89 -56.763,7.491Zm52.582,71.154c2.038,-0.173 4.091,0.032 6.055,0.605c8.803,2.568 13.865,11.8 11.297,20.603c-2.568,8.803 -11.8,13.865 -20.603,11.297c-1.964,-0.573 -3.805,-1.503 -5.431,-2.745l-12.761,-9.745c-4.295,-3.28 -10.259,-3.261 -14.533,0.047c-4.274,3.307 -5.788,9.076 -3.691,14.057l6.233,14.797c0.794,1.885 1.234,3.901 1.296,5.946c0.277,9.166 -6.938,16.833 -16.104,17.111c-9.166,0.277 -16.833,-6.938 -17.111,-16.104c-0.062,-2.045 0.254,-4.084 0.933,-6.014l5.325,-15.147c1.792,-5.099 -0.069,-10.765 -4.536,-13.808c-4.466,-3.042 -10.421,-2.7 -14.509,0.834l-12.147,10.5c-1.548,1.338 -3.329,2.379 -5.255,3.07c-8.631,3.096 -18.153,-1.397 -21.249,-10.028c-3.097,-8.632 1.396,-18.153 10.028,-21.25c1.925,-0.691 3.962,-1.02 6.007,-0.971l16.052,0.383c5.402,0.129 10.216,-3.392 11.73,-8.58c1.513,-5.188 -0.652,-10.745 -5.277,-13.541l-13.74,-8.308c-1.751,-1.058 -3.291,-2.431 -4.543,-4.049c-5.612,-7.252 -4.281,-17.696 2.971,-23.309c7.252,-5.612 17.696,-4.281 23.308,2.971c1.252,1.618 2.195,3.453 2.781,5.413l4.595,15.385c1.547,5.178 6.383,8.668 11.785,8.504c5.402,-0.163 10.018,-3.94 11.248,-9.202l3.655,-15.635c0.466,-1.992 1.296,-3.881 2.447,-5.572c5.163,-7.579 15.507,-9.54 23.086,-4.377c7.579,5.162 9.54,15.507 4.378,23.085c-1.152,1.691 -2.606,3.155 -4.29,4.317l-13.211,9.125c-4.447,3.071 -6.272,8.749 -4.447,13.836c1.825,5.087 6.844,8.31 12.229,7.854l15.999,-1.355Z"/><path d="M1844.6,518.91c0,-0 -23.355,93.477 -7.921,128.144c15.435,34.667 100.53,79.859 100.53,79.859c0,-0 -96.119,6.673 -124.32,32.066c-28.201,25.392 -44.885,120.287 -44.885,120.287c0,-0 -36.049,-89.353 -68.913,-108.327c-32.864,-18.974 -128.27,-5.517 -128.27,-5.517c-0,-0 73.839,-61.897 81.729,-99.015c7.89,-37.119 -34.39,-123.698 -34.39,-123.698c-0,0 81.684,51.099 119.424,47.132c37.741,-3.966 107.016,-70.931 107.016,-70.931Z" style="fill:#ff8500;"/><path d="M1870.17,525.298c2.851,-11.412 -2.205,-23.332 -12.392,-29.214c-10.188,-5.881 -23.039,-4.3 -31.497,3.875c0,0 -23.545,22.761 -50.079,41.778c-14.565,10.44 -29.637,20.659 -41.374,21.892c-11.736,1.234 -28.603,-5.628 -45.021,-12.811c-29.907,-13.085 -57.671,-30.453 -57.671,-30.453c-9.972,-6.239 -22.872,-5.113 -31.613,2.758c-8.742,7.871 -11.21,20.582 -6.048,31.152c0,0 14.371,29.427 24.258,60.538c5.428,17.079 10.489,34.571 8.035,46.114c-2.453,11.543 -14.191,25.464 -26.096,38.859c-21.687,24.4 -46.784,45.437 -46.784,45.437c-9.015,7.557 -11.931,20.173 -7.146,30.919c4.784,10.746 16.111,17.021 27.759,15.378c-0,0 32.427,-4.574 65.071,-4.364c17.92,0.116 36.12,0.708 46.34,6.609c10.22,5.9 19.832,21.365 28.893,36.827c16.504,28.165 28.756,58.535 28.756,58.535c4.401,10.909 15.498,17.581 27.197,16.351c11.699,-1.23 21.167,-10.063 23.204,-21.648c-0,-0 5.67,-32.254 15.957,-63.235c5.648,-17.008 11.835,-34.133 20.605,-42.03c8.77,-7.896 26.449,-12.259 43.954,-16.098c31.886,-6.993 64.556,-9.261 64.556,-9.261c11.735,-0.815 21.509,-9.307 23.955,-20.813c2.446,-11.506 -3.03,-23.24 -13.419,-28.758c0,0 -28.922,-15.359 -55.208,-34.717c-14.43,-10.627 -28.806,-21.804 -33.606,-32.584c-4.8,-10.781 -3.486,-28.943 -1.728,-46.777c3.203,-32.487 11.142,-64.259 11.142,-64.259Zm-25.571,-6.388c0,-0 -23.355,93.477 -7.921,128.144c15.435,34.667 100.53,79.859 100.53,79.859c0,-0 -96.119,6.673 -124.32,32.066c-28.201,25.392 -44.885,120.287 -44.885,120.287c0,-0 -36.049,-89.353 -68.913,-108.327c-32.864,-18.974 -128.27,-5.517 -128.27,-5.517c-0,-0 73.839,-61.897 81.729,-99.015c7.89,-37.119 -34.39,-123.698 -34.39,-123.698c-0,0 81.684,51.099 119.424,47.132c37.741,-3.966 107.016,-70.931 107.016,-70.931Z"/></g><defs><radialGradient id="_Radial1" cx="0" cy="0" r="1" gradientUnits="userSpaceOnUse" gradientTransform="matrix(1920.38,5.68434e-14,-5.68434e-14,1217.59,2767.44,1846.8)"><stop offset="0" style="stop-color:#ff7f19;stop-opacity:1"/><stop offset="1" style="stop-color:#ffcf00;stop-opacity:1"/></radialGradient><radialGradient id="_Radial2" cx="0" cy="0" r="1" gradientUnits="userSpaceOnUse" gradientTransform="matrix(1920.38,5.68434e-14,-5.68434e-14,1217.59,2767.44,1846.8)"><stop offset="0" style="stop-color:#ff7f19;stop-opacity:1"/><stop offset="1" style="stop-color:#ffcf00;stop-opacity:1"/></radialGradient></defs></svg>